%TF.GenerationSoftware,KiCad,Pcbnew,(5.1.10)-1*%
%TF.CreationDate,2021-09-27T16:18:06+09:00*%
%TF.ProjectId,EXTERNAL_LED_BOARD,45585445-524e-4414-9c5f-4c45445f424f,rev?*%
%TF.SameCoordinates,Original*%
%TF.FileFunction,Copper,L2,Bot*%
%TF.FilePolarity,Positive*%
%FSLAX46Y46*%
G04 Gerber Fmt 4.6, Leading zero omitted, Abs format (unit mm)*
G04 Created by KiCad (PCBNEW (5.1.10)-1) date 2021-09-27 16:18:06*
%MOMM*%
%LPD*%
G01*
G04 APERTURE LIST*
%TA.AperFunction,ComponentPad*%
%ADD10C,1.300000*%
%TD*%
%TA.AperFunction,ConnectorPad*%
%ADD11C,5.600000*%
%TD*%
%TA.AperFunction,ComponentPad*%
%ADD12C,3.600000*%
%TD*%
%TA.AperFunction,ViaPad*%
%ADD13C,0.800000*%
%TD*%
%TA.AperFunction,Conductor*%
%ADD14C,0.250000*%
%TD*%
%TA.AperFunction,Conductor*%
%ADD15C,0.254000*%
%TD*%
%TA.AperFunction,Conductor*%
%ADD16C,0.100000*%
%TD*%
G04 APERTURE END LIST*
D10*
%TO.P,J2,3*%
%TO.N,GND*%
X132356000Y-104911000D03*
%TO.P,J2,2*%
%TO.N,/OUT*%
X134356000Y-104911000D03*
%TO.P,J2,1*%
%TO.N,+5V*%
X136356000Y-104911000D03*
%TD*%
%TO.P,J1,3*%
%TO.N,GND*%
X132356000Y-93620400D03*
%TO.P,J1,2*%
%TO.N,/IN*%
X134356000Y-93620400D03*
%TO.P,J1,1*%
%TO.N,+5V*%
X136356000Y-93620400D03*
%TD*%
D11*
%TO.P,H3,1*%
%TO.N,N/C*%
X124406000Y-104306000D03*
D12*
X124406000Y-104306000D03*
%TD*%
D11*
%TO.P,H4,1*%
%TO.N,N/C*%
X145006000Y-104306000D03*
D12*
X145006000Y-104306000D03*
%TD*%
D11*
%TO.P,H2,1*%
%TO.N,N/C*%
X145006000Y-93705500D03*
D12*
X145006000Y-93705500D03*
%TD*%
D11*
%TO.P,H1,1*%
%TO.N,N/C*%
X124406000Y-93705500D03*
D12*
X124406000Y-93705500D03*
%TD*%
D13*
%TO.N,Net-(U1-Pad1)*%
X135256000Y-95590501D03*
X129756000Y-102420501D03*
%TO.N,Net-(U2-Pad1)*%
X134156000Y-102420501D03*
X139656000Y-95590501D03*
%TD*%
D14*
%TO.N,Net-(U1-Pad1)*%
X134902446Y-97274054D02*
X129756000Y-102420501D01*
X134902446Y-97274054D02*
X134943299Y-97231143D01*
X134943299Y-97231143D02*
X134981998Y-97186280D01*
X134981998Y-97186280D02*
X135018449Y-97139572D01*
X135018449Y-97139572D02*
X135052564Y-97091132D01*
X135052564Y-97091132D02*
X135084262Y-97041077D01*
X135084262Y-97041077D02*
X135113465Y-96989526D01*
X135113465Y-96989526D02*
X135140103Y-96936605D01*
X135140103Y-96936605D02*
X135164113Y-96882440D01*
X135164113Y-96882440D02*
X135185436Y-96827162D01*
X135185436Y-96827162D02*
X135204021Y-96770905D01*
X135204021Y-96770905D02*
X135219823Y-96713803D01*
X135219823Y-96713803D02*
X135232805Y-96655995D01*
X135232805Y-96655995D02*
X135242934Y-96597620D01*
X135242934Y-96597620D02*
X135250186Y-96538818D01*
X135250186Y-96538818D02*
X135254545Y-96479730D01*
X135254545Y-96479730D02*
X135256000Y-96420501D01*
X135256000Y-96420501D02*
X135256000Y-95590501D01*
%TO.N,Net-(U2-Pad1)*%
X139302446Y-97274054D02*
X134156000Y-102420501D01*
X139302446Y-97274054D02*
X139343299Y-97231143D01*
X139343299Y-97231143D02*
X139381998Y-97186280D01*
X139381998Y-97186280D02*
X139418449Y-97139573D01*
X139418449Y-97139573D02*
X139452565Y-97091133D01*
X139452565Y-97091133D02*
X139484262Y-97041077D01*
X139484262Y-97041077D02*
X139513465Y-96989526D01*
X139513465Y-96989526D02*
X139540104Y-96936605D01*
X139540104Y-96936605D02*
X139564113Y-96882440D01*
X139564113Y-96882440D02*
X139585436Y-96827162D01*
X139585436Y-96827162D02*
X139604021Y-96770905D01*
X139604021Y-96770905D02*
X139619824Y-96713803D01*
X139619824Y-96713803D02*
X139632805Y-96655995D01*
X139632805Y-96655995D02*
X139642934Y-96597620D01*
X139642934Y-96597620D02*
X139650186Y-96538818D01*
X139650186Y-96538818D02*
X139654545Y-96479730D01*
X139654545Y-96479730D02*
X139656000Y-96420501D01*
X139656000Y-96420501D02*
X139656000Y-95590501D01*
%TD*%
D15*
%TO.N,GND*%
X142337862Y-91515815D02*
X141961943Y-92078418D01*
X141703006Y-92703548D01*
X141571000Y-93367182D01*
X141571000Y-94043818D01*
X141703006Y-94707452D01*
X141961943Y-95332582D01*
X142337862Y-95895185D01*
X142816315Y-96373638D01*
X143378918Y-96749557D01*
X144004048Y-97008494D01*
X144667682Y-97140500D01*
X145344318Y-97140500D01*
X146007952Y-97008494D01*
X146633082Y-96749557D01*
X147195685Y-96373638D01*
X147470999Y-96098324D01*
X147471001Y-101913178D01*
X147195685Y-101637862D01*
X146633082Y-101261943D01*
X146007952Y-101003006D01*
X145344318Y-100871000D01*
X144667682Y-100871000D01*
X144004048Y-101003006D01*
X143378918Y-101261943D01*
X142816315Y-101637862D01*
X142337862Y-102116315D01*
X141961943Y-102678918D01*
X141703006Y-103304048D01*
X141571000Y-103967682D01*
X141571000Y-104644318D01*
X141703006Y-105307952D01*
X141961943Y-105933082D01*
X142337862Y-106495685D01*
X142612677Y-106770500D01*
X139083469Y-106770500D01*
X139091000Y-106732637D01*
X139091000Y-106489363D01*
X139043540Y-106250764D01*
X138950443Y-106026008D01*
X138815287Y-105823733D01*
X138643267Y-105651713D01*
X138440992Y-105516557D01*
X138216236Y-105423460D01*
X137977637Y-105376000D01*
X137734363Y-105376000D01*
X137538095Y-105415040D01*
X137591619Y-105285821D01*
X137641000Y-105037561D01*
X137641000Y-104784439D01*
X137591619Y-104536179D01*
X137494753Y-104302324D01*
X137354125Y-104091860D01*
X137175140Y-103912875D01*
X136964676Y-103772247D01*
X136730821Y-103675381D01*
X136482561Y-103626000D01*
X136229439Y-103626000D01*
X135981179Y-103675381D01*
X135747324Y-103772247D01*
X135536860Y-103912875D01*
X135357875Y-104091860D01*
X135356000Y-104094666D01*
X135354125Y-104091860D01*
X135175140Y-103912875D01*
X134964676Y-103772247D01*
X134730821Y-103675381D01*
X134482561Y-103626000D01*
X134229439Y-103626000D01*
X133981179Y-103675381D01*
X133747324Y-103772247D01*
X133536860Y-103912875D01*
X133357875Y-104091860D01*
X133276733Y-104213297D01*
X133241527Y-104205078D01*
X132535605Y-104911000D01*
X133241527Y-105616922D01*
X133276733Y-105608703D01*
X133357875Y-105730140D01*
X133536860Y-105909125D01*
X133747324Y-106049753D01*
X133981179Y-106146619D01*
X134229439Y-106196000D01*
X134482561Y-106196000D01*
X134730821Y-106146619D01*
X134964676Y-106049753D01*
X135175140Y-105909125D01*
X135354125Y-105730140D01*
X135356000Y-105727334D01*
X135357875Y-105730140D01*
X135536860Y-105909125D01*
X135747324Y-106049753D01*
X135981179Y-106146619D01*
X136229439Y-106196000D01*
X136482561Y-106196000D01*
X136709872Y-106150786D01*
X136668460Y-106250764D01*
X136621000Y-106489363D01*
X136621000Y-106732637D01*
X136628531Y-106770500D01*
X126799323Y-106770500D01*
X127074138Y-106495685D01*
X127450057Y-105933082D01*
X127506619Y-105796527D01*
X131650078Y-105796527D01*
X131703466Y-106025201D01*
X131933374Y-106131095D01*
X132179524Y-106190102D01*
X132432455Y-106199952D01*
X132682449Y-106160270D01*
X132919896Y-106072578D01*
X133008534Y-106025201D01*
X133061922Y-105796527D01*
X132356000Y-105090605D01*
X131650078Y-105796527D01*
X127506619Y-105796527D01*
X127708994Y-105307952D01*
X127772745Y-104987455D01*
X131067048Y-104987455D01*
X131106730Y-105237449D01*
X131194422Y-105474896D01*
X131241799Y-105563534D01*
X131470473Y-105616922D01*
X132176395Y-104911000D01*
X131470473Y-104205078D01*
X131241799Y-104258466D01*
X131135905Y-104488374D01*
X131076898Y-104734524D01*
X131067048Y-104987455D01*
X127772745Y-104987455D01*
X127841000Y-104644318D01*
X127841000Y-104025473D01*
X131650078Y-104025473D01*
X132356000Y-104731395D01*
X133061922Y-104025473D01*
X133008534Y-103796799D01*
X132778626Y-103690905D01*
X132532476Y-103631898D01*
X132279545Y-103622048D01*
X132029551Y-103661730D01*
X131792104Y-103749422D01*
X131703466Y-103796799D01*
X131650078Y-104025473D01*
X127841000Y-104025473D01*
X127841000Y-103967682D01*
X127708994Y-103304048D01*
X127450057Y-102678918D01*
X127209276Y-102318562D01*
X128721000Y-102318562D01*
X128721000Y-102522440D01*
X128760774Y-102722399D01*
X128838795Y-102910757D01*
X128952063Y-103080275D01*
X129096226Y-103224438D01*
X129265744Y-103337706D01*
X129454102Y-103415727D01*
X129654061Y-103455501D01*
X129857939Y-103455501D01*
X130057898Y-103415727D01*
X130246256Y-103337706D01*
X130415774Y-103224438D01*
X130559937Y-103080275D01*
X130673205Y-102910757D01*
X130751226Y-102722399D01*
X130791000Y-102522440D01*
X130791000Y-102460302D01*
X135420066Y-97831236D01*
X135427142Y-97825132D01*
X135446435Y-97804867D01*
X135466245Y-97785057D01*
X135472181Y-97777824D01*
X135480872Y-97768695D01*
X135494393Y-97755822D01*
X135506598Y-97741673D01*
X135519479Y-97728143D01*
X135530962Y-97713428D01*
X135545294Y-97696813D01*
X135558174Y-97683285D01*
X135569664Y-97668562D01*
X135581862Y-97654421D01*
X135592614Y-97639153D01*
X135606124Y-97621842D01*
X135618318Y-97607706D01*
X135629068Y-97592443D01*
X135640562Y-97577714D01*
X135650556Y-97561932D01*
X135663184Y-97544001D01*
X135674673Y-97529280D01*
X135684669Y-97513495D01*
X135695427Y-97498220D01*
X135704629Y-97481976D01*
X135716378Y-97463423D01*
X135727128Y-97448159D01*
X135736323Y-97431927D01*
X135746318Y-97416144D01*
X135754724Y-97399444D01*
X135765533Y-97380364D01*
X135775531Y-97364575D01*
X135783934Y-97347881D01*
X135793133Y-97331642D01*
X135800697Y-97314578D01*
X135810571Y-97294962D01*
X135819771Y-97278721D01*
X135827338Y-97261649D01*
X135835739Y-97244960D01*
X135842462Y-97227533D01*
X135851353Y-97207474D01*
X135859751Y-97190790D01*
X135866471Y-97173368D01*
X135874039Y-97156296D01*
X135879899Y-97138559D01*
X135887794Y-97118090D01*
X135895365Y-97101011D01*
X135901226Y-97083270D01*
X135907946Y-97065849D01*
X135912924Y-97047859D01*
X135919812Y-97027010D01*
X135926534Y-97009584D01*
X135931513Y-96991593D01*
X135937372Y-96973857D01*
X135941466Y-96955627D01*
X135947316Y-96934486D01*
X135953174Y-96916755D01*
X135957269Y-96898522D01*
X135962250Y-96880521D01*
X135965441Y-96862130D01*
X135970250Y-96840715D01*
X135975233Y-96822709D01*
X135978426Y-96804310D01*
X135982516Y-96786095D01*
X135984803Y-96767558D01*
X135988557Y-96745919D01*
X135992649Y-96727697D01*
X135994934Y-96709168D01*
X135998127Y-96690767D01*
X135999501Y-96672135D01*
X136002186Y-96650363D01*
X136005379Y-96631964D01*
X136006754Y-96613327D01*
X136009040Y-96594791D01*
X136009498Y-96576135D01*
X136011114Y-96554236D01*
X136013398Y-96535716D01*
X136013856Y-96517059D01*
X136015232Y-96498413D01*
X136014773Y-96479731D01*
X136015083Y-96467149D01*
X136016000Y-96457834D01*
X136016000Y-96429807D01*
X136016687Y-96401844D01*
X136016000Y-96392529D01*
X136016000Y-96294212D01*
X136059937Y-96250275D01*
X136173205Y-96080757D01*
X136251226Y-95892399D01*
X136291000Y-95692440D01*
X136291000Y-95488562D01*
X136251226Y-95288603D01*
X136173205Y-95100245D01*
X136059937Y-94930727D01*
X135986235Y-94857025D01*
X136229439Y-94905400D01*
X136482561Y-94905400D01*
X136709872Y-94860186D01*
X136668460Y-94960164D01*
X136621000Y-95198763D01*
X136621000Y-95442037D01*
X136668460Y-95680636D01*
X136761557Y-95905392D01*
X136896713Y-96107667D01*
X137068733Y-96279687D01*
X137271008Y-96414843D01*
X137495764Y-96507940D01*
X137734363Y-96555400D01*
X137977637Y-96555400D01*
X138216236Y-96507940D01*
X138440992Y-96414843D01*
X138643267Y-96279687D01*
X138780212Y-96142742D01*
X138852063Y-96250275D01*
X138896000Y-96294212D01*
X138896000Y-96411201D01*
X138895233Y-96442412D01*
X138893618Y-96464312D01*
X138890934Y-96486073D01*
X138887184Y-96507685D01*
X138882379Y-96529083D01*
X138876530Y-96550217D01*
X138869646Y-96571053D01*
X138861758Y-96591504D01*
X138852865Y-96611567D01*
X138843000Y-96631165D01*
X138832195Y-96650237D01*
X138820457Y-96668775D01*
X138807829Y-96686704D01*
X138794338Y-96703992D01*
X138780001Y-96720612D01*
X138758480Y-96743217D01*
X134116199Y-101385501D01*
X134054061Y-101385501D01*
X133854102Y-101425275D01*
X133665744Y-101503296D01*
X133496226Y-101616564D01*
X133352063Y-101760727D01*
X133238795Y-101930245D01*
X133160774Y-102118603D01*
X133121000Y-102318562D01*
X133121000Y-102522440D01*
X133160774Y-102722399D01*
X133238795Y-102910757D01*
X133352063Y-103080275D01*
X133496226Y-103224438D01*
X133665744Y-103337706D01*
X133854102Y-103415727D01*
X134054061Y-103455501D01*
X134257939Y-103455501D01*
X134457898Y-103415727D01*
X134646256Y-103337706D01*
X134815774Y-103224438D01*
X134959937Y-103080275D01*
X135073205Y-102910757D01*
X135151226Y-102722399D01*
X135191000Y-102522440D01*
X135191000Y-102460302D01*
X139820066Y-97831236D01*
X139827142Y-97825132D01*
X139846435Y-97804867D01*
X139866245Y-97785057D01*
X139872181Y-97777824D01*
X139880872Y-97768695D01*
X139894393Y-97755822D01*
X139906598Y-97741673D01*
X139919479Y-97728143D01*
X139930962Y-97713428D01*
X139945291Y-97696817D01*
X139958169Y-97683291D01*
X139969662Y-97668565D01*
X139981862Y-97654421D01*
X139992614Y-97639153D01*
X140006114Y-97621856D01*
X140018312Y-97607715D01*
X140029070Y-97592440D01*
X140040557Y-97577721D01*
X140050544Y-97561951D01*
X140063192Y-97543992D01*
X140074684Y-97529266D01*
X140084669Y-97513497D01*
X140095422Y-97498230D01*
X140104631Y-97481973D01*
X140116380Y-97463420D01*
X140127128Y-97448159D01*
X140136329Y-97431917D01*
X140146327Y-97416128D01*
X140154729Y-97399436D01*
X140165532Y-97380365D01*
X140175525Y-97364585D01*
X140183929Y-97347889D01*
X140193133Y-97331642D01*
X140200695Y-97314583D01*
X140210566Y-97294973D01*
X140219778Y-97278711D01*
X140227345Y-97261639D01*
X140235736Y-97244970D01*
X140242459Y-97227542D01*
X140251363Y-97207455D01*
X140259751Y-97190790D01*
X140266468Y-97173376D01*
X140274044Y-97156285D01*
X140279906Y-97138541D01*
X140287794Y-97118090D01*
X140295365Y-97101011D01*
X140301226Y-97083270D01*
X140307946Y-97065849D01*
X140312924Y-97047859D01*
X140319811Y-97027014D01*
X140326530Y-97009596D01*
X140331510Y-96991600D01*
X140337372Y-96973857D01*
X140341465Y-96955630D01*
X140347317Y-96934484D01*
X140353178Y-96916743D01*
X140357269Y-96898523D01*
X140362248Y-96880533D01*
X140365442Y-96862128D01*
X140370250Y-96840715D01*
X140375233Y-96822709D01*
X140378428Y-96804298D01*
X140382518Y-96786082D01*
X140384803Y-96767553D01*
X140388557Y-96745919D01*
X140392649Y-96727697D01*
X140394934Y-96709168D01*
X140398127Y-96690767D01*
X140399501Y-96672135D01*
X140402186Y-96650363D01*
X140405379Y-96631964D01*
X140406754Y-96613327D01*
X140409040Y-96594791D01*
X140409498Y-96576135D01*
X140411114Y-96554236D01*
X140413398Y-96535716D01*
X140413856Y-96517059D01*
X140415232Y-96498413D01*
X140414773Y-96479731D01*
X140415083Y-96467149D01*
X140416000Y-96457834D01*
X140416000Y-96429807D01*
X140416687Y-96401844D01*
X140416000Y-96392529D01*
X140416000Y-96294212D01*
X140459937Y-96250275D01*
X140573205Y-96080757D01*
X140651226Y-95892399D01*
X140691000Y-95692440D01*
X140691000Y-95488562D01*
X140651226Y-95288603D01*
X140573205Y-95100245D01*
X140459937Y-94930727D01*
X140315774Y-94786564D01*
X140146256Y-94673296D01*
X139957898Y-94595275D01*
X139757939Y-94555501D01*
X139554061Y-94555501D01*
X139354102Y-94595275D01*
X139165744Y-94673296D01*
X138996226Y-94786564D01*
X138978836Y-94803954D01*
X138950443Y-94735408D01*
X138815287Y-94533133D01*
X138643267Y-94361113D01*
X138440992Y-94225957D01*
X138216236Y-94132860D01*
X137977637Y-94085400D01*
X137734363Y-94085400D01*
X137538095Y-94124440D01*
X137591619Y-93995221D01*
X137641000Y-93746961D01*
X137641000Y-93493839D01*
X137591619Y-93245579D01*
X137494753Y-93011724D01*
X137354125Y-92801260D01*
X137175140Y-92622275D01*
X136964676Y-92481647D01*
X136730821Y-92384781D01*
X136482561Y-92335400D01*
X136229439Y-92335400D01*
X135981179Y-92384781D01*
X135747324Y-92481647D01*
X135536860Y-92622275D01*
X135357875Y-92801260D01*
X135356000Y-92804066D01*
X135354125Y-92801260D01*
X135175140Y-92622275D01*
X134964676Y-92481647D01*
X134730821Y-92384781D01*
X134482561Y-92335400D01*
X134229439Y-92335400D01*
X133981179Y-92384781D01*
X133747324Y-92481647D01*
X133536860Y-92622275D01*
X133357875Y-92801260D01*
X133276733Y-92922697D01*
X133241527Y-92914478D01*
X132535605Y-93620400D01*
X133241527Y-94326322D01*
X133276733Y-94318103D01*
X133357875Y-94439540D01*
X133536860Y-94618525D01*
X133747324Y-94759153D01*
X133981179Y-94856019D01*
X134229439Y-94905400D01*
X134477390Y-94905400D01*
X134452063Y-94930727D01*
X134338795Y-95100245D01*
X134260774Y-95288603D01*
X134221000Y-95488562D01*
X134221000Y-95692440D01*
X134260774Y-95892399D01*
X134338795Y-96080757D01*
X134452063Y-96250275D01*
X134496000Y-96294212D01*
X134496000Y-96411201D01*
X134495233Y-96442412D01*
X134493618Y-96464312D01*
X134490934Y-96486073D01*
X134487186Y-96507674D01*
X134482378Y-96529081D01*
X134476526Y-96550228D01*
X134469646Y-96571053D01*
X134461754Y-96591513D01*
X134452870Y-96611556D01*
X134443000Y-96631164D01*
X134432197Y-96650234D01*
X134420461Y-96668766D01*
X134407828Y-96686704D01*
X134394331Y-96703999D01*
X134380001Y-96720612D01*
X134358480Y-96743217D01*
X129716199Y-101385501D01*
X129654061Y-101385501D01*
X129454102Y-101425275D01*
X129265744Y-101503296D01*
X129096226Y-101616564D01*
X128952063Y-101760727D01*
X128838795Y-101930245D01*
X128760774Y-102118603D01*
X128721000Y-102318562D01*
X127209276Y-102318562D01*
X127074138Y-102116315D01*
X126595685Y-101637862D01*
X126033082Y-101261943D01*
X125407952Y-101003006D01*
X124744318Y-100871000D01*
X124067682Y-100871000D01*
X123404048Y-101003006D01*
X122778918Y-101261943D01*
X122216315Y-101637862D01*
X121941000Y-101913177D01*
X121941000Y-96098323D01*
X122216315Y-96373638D01*
X122778918Y-96749557D01*
X123404048Y-97008494D01*
X124067682Y-97140500D01*
X124744318Y-97140500D01*
X125407952Y-97008494D01*
X126033082Y-96749557D01*
X126595685Y-96373638D01*
X127074138Y-95895185D01*
X127450057Y-95332582D01*
X127708994Y-94707452D01*
X127749080Y-94505927D01*
X131650078Y-94505927D01*
X131703466Y-94734601D01*
X131933374Y-94840495D01*
X132179524Y-94899502D01*
X132432455Y-94909352D01*
X132682449Y-94869670D01*
X132919896Y-94781978D01*
X133008534Y-94734601D01*
X133061922Y-94505927D01*
X132356000Y-93800005D01*
X131650078Y-94505927D01*
X127749080Y-94505927D01*
X127841000Y-94043818D01*
X127841000Y-93696855D01*
X131067048Y-93696855D01*
X131106730Y-93946849D01*
X131194422Y-94184296D01*
X131241799Y-94272934D01*
X131470473Y-94326322D01*
X132176395Y-93620400D01*
X131470473Y-92914478D01*
X131241799Y-92967866D01*
X131135905Y-93197774D01*
X131076898Y-93443924D01*
X131067048Y-93696855D01*
X127841000Y-93696855D01*
X127841000Y-93367182D01*
X127715225Y-92734873D01*
X131650078Y-92734873D01*
X132356000Y-93440795D01*
X133061922Y-92734873D01*
X133008534Y-92506199D01*
X132778626Y-92400305D01*
X132532476Y-92341298D01*
X132279545Y-92331448D01*
X132029551Y-92371130D01*
X131792104Y-92458822D01*
X131703466Y-92506199D01*
X131650078Y-92734873D01*
X127715225Y-92734873D01*
X127708994Y-92703548D01*
X127450057Y-92078418D01*
X127074138Y-91515815D01*
X126798824Y-91240501D01*
X142613176Y-91240501D01*
X142337862Y-91515815D01*
%TA.AperFunction,Conductor*%
D16*
G36*
X142337862Y-91515815D02*
G01*
X141961943Y-92078418D01*
X141703006Y-92703548D01*
X141571000Y-93367182D01*
X141571000Y-94043818D01*
X141703006Y-94707452D01*
X141961943Y-95332582D01*
X142337862Y-95895185D01*
X142816315Y-96373638D01*
X143378918Y-96749557D01*
X144004048Y-97008494D01*
X144667682Y-97140500D01*
X145344318Y-97140500D01*
X146007952Y-97008494D01*
X146633082Y-96749557D01*
X147195685Y-96373638D01*
X147470999Y-96098324D01*
X147471001Y-101913178D01*
X147195685Y-101637862D01*
X146633082Y-101261943D01*
X146007952Y-101003006D01*
X145344318Y-100871000D01*
X144667682Y-100871000D01*
X144004048Y-101003006D01*
X143378918Y-101261943D01*
X142816315Y-101637862D01*
X142337862Y-102116315D01*
X141961943Y-102678918D01*
X141703006Y-103304048D01*
X141571000Y-103967682D01*
X141571000Y-104644318D01*
X141703006Y-105307952D01*
X141961943Y-105933082D01*
X142337862Y-106495685D01*
X142612677Y-106770500D01*
X139083469Y-106770500D01*
X139091000Y-106732637D01*
X139091000Y-106489363D01*
X139043540Y-106250764D01*
X138950443Y-106026008D01*
X138815287Y-105823733D01*
X138643267Y-105651713D01*
X138440992Y-105516557D01*
X138216236Y-105423460D01*
X137977637Y-105376000D01*
X137734363Y-105376000D01*
X137538095Y-105415040D01*
X137591619Y-105285821D01*
X137641000Y-105037561D01*
X137641000Y-104784439D01*
X137591619Y-104536179D01*
X137494753Y-104302324D01*
X137354125Y-104091860D01*
X137175140Y-103912875D01*
X136964676Y-103772247D01*
X136730821Y-103675381D01*
X136482561Y-103626000D01*
X136229439Y-103626000D01*
X135981179Y-103675381D01*
X135747324Y-103772247D01*
X135536860Y-103912875D01*
X135357875Y-104091860D01*
X135356000Y-104094666D01*
X135354125Y-104091860D01*
X135175140Y-103912875D01*
X134964676Y-103772247D01*
X134730821Y-103675381D01*
X134482561Y-103626000D01*
X134229439Y-103626000D01*
X133981179Y-103675381D01*
X133747324Y-103772247D01*
X133536860Y-103912875D01*
X133357875Y-104091860D01*
X133276733Y-104213297D01*
X133241527Y-104205078D01*
X132535605Y-104911000D01*
X133241527Y-105616922D01*
X133276733Y-105608703D01*
X133357875Y-105730140D01*
X133536860Y-105909125D01*
X133747324Y-106049753D01*
X133981179Y-106146619D01*
X134229439Y-106196000D01*
X134482561Y-106196000D01*
X134730821Y-106146619D01*
X134964676Y-106049753D01*
X135175140Y-105909125D01*
X135354125Y-105730140D01*
X135356000Y-105727334D01*
X135357875Y-105730140D01*
X135536860Y-105909125D01*
X135747324Y-106049753D01*
X135981179Y-106146619D01*
X136229439Y-106196000D01*
X136482561Y-106196000D01*
X136709872Y-106150786D01*
X136668460Y-106250764D01*
X136621000Y-106489363D01*
X136621000Y-106732637D01*
X136628531Y-106770500D01*
X126799323Y-106770500D01*
X127074138Y-106495685D01*
X127450057Y-105933082D01*
X127506619Y-105796527D01*
X131650078Y-105796527D01*
X131703466Y-106025201D01*
X131933374Y-106131095D01*
X132179524Y-106190102D01*
X132432455Y-106199952D01*
X132682449Y-106160270D01*
X132919896Y-106072578D01*
X133008534Y-106025201D01*
X133061922Y-105796527D01*
X132356000Y-105090605D01*
X131650078Y-105796527D01*
X127506619Y-105796527D01*
X127708994Y-105307952D01*
X127772745Y-104987455D01*
X131067048Y-104987455D01*
X131106730Y-105237449D01*
X131194422Y-105474896D01*
X131241799Y-105563534D01*
X131470473Y-105616922D01*
X132176395Y-104911000D01*
X131470473Y-104205078D01*
X131241799Y-104258466D01*
X131135905Y-104488374D01*
X131076898Y-104734524D01*
X131067048Y-104987455D01*
X127772745Y-104987455D01*
X127841000Y-104644318D01*
X127841000Y-104025473D01*
X131650078Y-104025473D01*
X132356000Y-104731395D01*
X133061922Y-104025473D01*
X133008534Y-103796799D01*
X132778626Y-103690905D01*
X132532476Y-103631898D01*
X132279545Y-103622048D01*
X132029551Y-103661730D01*
X131792104Y-103749422D01*
X131703466Y-103796799D01*
X131650078Y-104025473D01*
X127841000Y-104025473D01*
X127841000Y-103967682D01*
X127708994Y-103304048D01*
X127450057Y-102678918D01*
X127209276Y-102318562D01*
X128721000Y-102318562D01*
X128721000Y-102522440D01*
X128760774Y-102722399D01*
X128838795Y-102910757D01*
X128952063Y-103080275D01*
X129096226Y-103224438D01*
X129265744Y-103337706D01*
X129454102Y-103415727D01*
X129654061Y-103455501D01*
X129857939Y-103455501D01*
X130057898Y-103415727D01*
X130246256Y-103337706D01*
X130415774Y-103224438D01*
X130559937Y-103080275D01*
X130673205Y-102910757D01*
X130751226Y-102722399D01*
X130791000Y-102522440D01*
X130791000Y-102460302D01*
X135420066Y-97831236D01*
X135427142Y-97825132D01*
X135446435Y-97804867D01*
X135466245Y-97785057D01*
X135472181Y-97777824D01*
X135480872Y-97768695D01*
X135494393Y-97755822D01*
X135506598Y-97741673D01*
X135519479Y-97728143D01*
X135530962Y-97713428D01*
X135545294Y-97696813D01*
X135558174Y-97683285D01*
X135569664Y-97668562D01*
X135581862Y-97654421D01*
X135592614Y-97639153D01*
X135606124Y-97621842D01*
X135618318Y-97607706D01*
X135629068Y-97592443D01*
X135640562Y-97577714D01*
X135650556Y-97561932D01*
X135663184Y-97544001D01*
X135674673Y-97529280D01*
X135684669Y-97513495D01*
X135695427Y-97498220D01*
X135704629Y-97481976D01*
X135716378Y-97463423D01*
X135727128Y-97448159D01*
X135736323Y-97431927D01*
X135746318Y-97416144D01*
X135754724Y-97399444D01*
X135765533Y-97380364D01*
X135775531Y-97364575D01*
X135783934Y-97347881D01*
X135793133Y-97331642D01*
X135800697Y-97314578D01*
X135810571Y-97294962D01*
X135819771Y-97278721D01*
X135827338Y-97261649D01*
X135835739Y-97244960D01*
X135842462Y-97227533D01*
X135851353Y-97207474D01*
X135859751Y-97190790D01*
X135866471Y-97173368D01*
X135874039Y-97156296D01*
X135879899Y-97138559D01*
X135887794Y-97118090D01*
X135895365Y-97101011D01*
X135901226Y-97083270D01*
X135907946Y-97065849D01*
X135912924Y-97047859D01*
X135919812Y-97027010D01*
X135926534Y-97009584D01*
X135931513Y-96991593D01*
X135937372Y-96973857D01*
X135941466Y-96955627D01*
X135947316Y-96934486D01*
X135953174Y-96916755D01*
X135957269Y-96898522D01*
X135962250Y-96880521D01*
X135965441Y-96862130D01*
X135970250Y-96840715D01*
X135975233Y-96822709D01*
X135978426Y-96804310D01*
X135982516Y-96786095D01*
X135984803Y-96767558D01*
X135988557Y-96745919D01*
X135992649Y-96727697D01*
X135994934Y-96709168D01*
X135998127Y-96690767D01*
X135999501Y-96672135D01*
X136002186Y-96650363D01*
X136005379Y-96631964D01*
X136006754Y-96613327D01*
X136009040Y-96594791D01*
X136009498Y-96576135D01*
X136011114Y-96554236D01*
X136013398Y-96535716D01*
X136013856Y-96517059D01*
X136015232Y-96498413D01*
X136014773Y-96479731D01*
X136015083Y-96467149D01*
X136016000Y-96457834D01*
X136016000Y-96429807D01*
X136016687Y-96401844D01*
X136016000Y-96392529D01*
X136016000Y-96294212D01*
X136059937Y-96250275D01*
X136173205Y-96080757D01*
X136251226Y-95892399D01*
X136291000Y-95692440D01*
X136291000Y-95488562D01*
X136251226Y-95288603D01*
X136173205Y-95100245D01*
X136059937Y-94930727D01*
X135986235Y-94857025D01*
X136229439Y-94905400D01*
X136482561Y-94905400D01*
X136709872Y-94860186D01*
X136668460Y-94960164D01*
X136621000Y-95198763D01*
X136621000Y-95442037D01*
X136668460Y-95680636D01*
X136761557Y-95905392D01*
X136896713Y-96107667D01*
X137068733Y-96279687D01*
X137271008Y-96414843D01*
X137495764Y-96507940D01*
X137734363Y-96555400D01*
X137977637Y-96555400D01*
X138216236Y-96507940D01*
X138440992Y-96414843D01*
X138643267Y-96279687D01*
X138780212Y-96142742D01*
X138852063Y-96250275D01*
X138896000Y-96294212D01*
X138896000Y-96411201D01*
X138895233Y-96442412D01*
X138893618Y-96464312D01*
X138890934Y-96486073D01*
X138887184Y-96507685D01*
X138882379Y-96529083D01*
X138876530Y-96550217D01*
X138869646Y-96571053D01*
X138861758Y-96591504D01*
X138852865Y-96611567D01*
X138843000Y-96631165D01*
X138832195Y-96650237D01*
X138820457Y-96668775D01*
X138807829Y-96686704D01*
X138794338Y-96703992D01*
X138780001Y-96720612D01*
X138758480Y-96743217D01*
X134116199Y-101385501D01*
X134054061Y-101385501D01*
X133854102Y-101425275D01*
X133665744Y-101503296D01*
X133496226Y-101616564D01*
X133352063Y-101760727D01*
X133238795Y-101930245D01*
X133160774Y-102118603D01*
X133121000Y-102318562D01*
X133121000Y-102522440D01*
X133160774Y-102722399D01*
X133238795Y-102910757D01*
X133352063Y-103080275D01*
X133496226Y-103224438D01*
X133665744Y-103337706D01*
X133854102Y-103415727D01*
X134054061Y-103455501D01*
X134257939Y-103455501D01*
X134457898Y-103415727D01*
X134646256Y-103337706D01*
X134815774Y-103224438D01*
X134959937Y-103080275D01*
X135073205Y-102910757D01*
X135151226Y-102722399D01*
X135191000Y-102522440D01*
X135191000Y-102460302D01*
X139820066Y-97831236D01*
X139827142Y-97825132D01*
X139846435Y-97804867D01*
X139866245Y-97785057D01*
X139872181Y-97777824D01*
X139880872Y-97768695D01*
X139894393Y-97755822D01*
X139906598Y-97741673D01*
X139919479Y-97728143D01*
X139930962Y-97713428D01*
X139945291Y-97696817D01*
X139958169Y-97683291D01*
X139969662Y-97668565D01*
X139981862Y-97654421D01*
X139992614Y-97639153D01*
X140006114Y-97621856D01*
X140018312Y-97607715D01*
X140029070Y-97592440D01*
X140040557Y-97577721D01*
X140050544Y-97561951D01*
X140063192Y-97543992D01*
X140074684Y-97529266D01*
X140084669Y-97513497D01*
X140095422Y-97498230D01*
X140104631Y-97481973D01*
X140116380Y-97463420D01*
X140127128Y-97448159D01*
X140136329Y-97431917D01*
X140146327Y-97416128D01*
X140154729Y-97399436D01*
X140165532Y-97380365D01*
X140175525Y-97364585D01*
X140183929Y-97347889D01*
X140193133Y-97331642D01*
X140200695Y-97314583D01*
X140210566Y-97294973D01*
X140219778Y-97278711D01*
X140227345Y-97261639D01*
X140235736Y-97244970D01*
X140242459Y-97227542D01*
X140251363Y-97207455D01*
X140259751Y-97190790D01*
X140266468Y-97173376D01*
X140274044Y-97156285D01*
X140279906Y-97138541D01*
X140287794Y-97118090D01*
X140295365Y-97101011D01*
X140301226Y-97083270D01*
X140307946Y-97065849D01*
X140312924Y-97047859D01*
X140319811Y-97027014D01*
X140326530Y-97009596D01*
X140331510Y-96991600D01*
X140337372Y-96973857D01*
X140341465Y-96955630D01*
X140347317Y-96934484D01*
X140353178Y-96916743D01*
X140357269Y-96898523D01*
X140362248Y-96880533D01*
X140365442Y-96862128D01*
X140370250Y-96840715D01*
X140375233Y-96822709D01*
X140378428Y-96804298D01*
X140382518Y-96786082D01*
X140384803Y-96767553D01*
X140388557Y-96745919D01*
X140392649Y-96727697D01*
X140394934Y-96709168D01*
X140398127Y-96690767D01*
X140399501Y-96672135D01*
X140402186Y-96650363D01*
X140405379Y-96631964D01*
X140406754Y-96613327D01*
X140409040Y-96594791D01*
X140409498Y-96576135D01*
X140411114Y-96554236D01*
X140413398Y-96535716D01*
X140413856Y-96517059D01*
X140415232Y-96498413D01*
X140414773Y-96479731D01*
X140415083Y-96467149D01*
X140416000Y-96457834D01*
X140416000Y-96429807D01*
X140416687Y-96401844D01*
X140416000Y-96392529D01*
X140416000Y-96294212D01*
X140459937Y-96250275D01*
X140573205Y-96080757D01*
X140651226Y-95892399D01*
X140691000Y-95692440D01*
X140691000Y-95488562D01*
X140651226Y-95288603D01*
X140573205Y-95100245D01*
X140459937Y-94930727D01*
X140315774Y-94786564D01*
X140146256Y-94673296D01*
X139957898Y-94595275D01*
X139757939Y-94555501D01*
X139554061Y-94555501D01*
X139354102Y-94595275D01*
X139165744Y-94673296D01*
X138996226Y-94786564D01*
X138978836Y-94803954D01*
X138950443Y-94735408D01*
X138815287Y-94533133D01*
X138643267Y-94361113D01*
X138440992Y-94225957D01*
X138216236Y-94132860D01*
X137977637Y-94085400D01*
X137734363Y-94085400D01*
X137538095Y-94124440D01*
X137591619Y-93995221D01*
X137641000Y-93746961D01*
X137641000Y-93493839D01*
X137591619Y-93245579D01*
X137494753Y-93011724D01*
X137354125Y-92801260D01*
X137175140Y-92622275D01*
X136964676Y-92481647D01*
X136730821Y-92384781D01*
X136482561Y-92335400D01*
X136229439Y-92335400D01*
X135981179Y-92384781D01*
X135747324Y-92481647D01*
X135536860Y-92622275D01*
X135357875Y-92801260D01*
X135356000Y-92804066D01*
X135354125Y-92801260D01*
X135175140Y-92622275D01*
X134964676Y-92481647D01*
X134730821Y-92384781D01*
X134482561Y-92335400D01*
X134229439Y-92335400D01*
X133981179Y-92384781D01*
X133747324Y-92481647D01*
X133536860Y-92622275D01*
X133357875Y-92801260D01*
X133276733Y-92922697D01*
X133241527Y-92914478D01*
X132535605Y-93620400D01*
X133241527Y-94326322D01*
X133276733Y-94318103D01*
X133357875Y-94439540D01*
X133536860Y-94618525D01*
X133747324Y-94759153D01*
X133981179Y-94856019D01*
X134229439Y-94905400D01*
X134477390Y-94905400D01*
X134452063Y-94930727D01*
X134338795Y-95100245D01*
X134260774Y-95288603D01*
X134221000Y-95488562D01*
X134221000Y-95692440D01*
X134260774Y-95892399D01*
X134338795Y-96080757D01*
X134452063Y-96250275D01*
X134496000Y-96294212D01*
X134496000Y-96411201D01*
X134495233Y-96442412D01*
X134493618Y-96464312D01*
X134490934Y-96486073D01*
X134487186Y-96507674D01*
X134482378Y-96529081D01*
X134476526Y-96550228D01*
X134469646Y-96571053D01*
X134461754Y-96591513D01*
X134452870Y-96611556D01*
X134443000Y-96631164D01*
X134432197Y-96650234D01*
X134420461Y-96668766D01*
X134407828Y-96686704D01*
X134394331Y-96703999D01*
X134380001Y-96720612D01*
X134358480Y-96743217D01*
X129716199Y-101385501D01*
X129654061Y-101385501D01*
X129454102Y-101425275D01*
X129265744Y-101503296D01*
X129096226Y-101616564D01*
X128952063Y-101760727D01*
X128838795Y-101930245D01*
X128760774Y-102118603D01*
X128721000Y-102318562D01*
X127209276Y-102318562D01*
X127074138Y-102116315D01*
X126595685Y-101637862D01*
X126033082Y-101261943D01*
X125407952Y-101003006D01*
X124744318Y-100871000D01*
X124067682Y-100871000D01*
X123404048Y-101003006D01*
X122778918Y-101261943D01*
X122216315Y-101637862D01*
X121941000Y-101913177D01*
X121941000Y-96098323D01*
X122216315Y-96373638D01*
X122778918Y-96749557D01*
X123404048Y-97008494D01*
X124067682Y-97140500D01*
X124744318Y-97140500D01*
X125407952Y-97008494D01*
X126033082Y-96749557D01*
X126595685Y-96373638D01*
X127074138Y-95895185D01*
X127450057Y-95332582D01*
X127708994Y-94707452D01*
X127749080Y-94505927D01*
X131650078Y-94505927D01*
X131703466Y-94734601D01*
X131933374Y-94840495D01*
X132179524Y-94899502D01*
X132432455Y-94909352D01*
X132682449Y-94869670D01*
X132919896Y-94781978D01*
X133008534Y-94734601D01*
X133061922Y-94505927D01*
X132356000Y-93800005D01*
X131650078Y-94505927D01*
X127749080Y-94505927D01*
X127841000Y-94043818D01*
X127841000Y-93696855D01*
X131067048Y-93696855D01*
X131106730Y-93946849D01*
X131194422Y-94184296D01*
X131241799Y-94272934D01*
X131470473Y-94326322D01*
X132176395Y-93620400D01*
X131470473Y-92914478D01*
X131241799Y-92967866D01*
X131135905Y-93197774D01*
X131076898Y-93443924D01*
X131067048Y-93696855D01*
X127841000Y-93696855D01*
X127841000Y-93367182D01*
X127715225Y-92734873D01*
X131650078Y-92734873D01*
X132356000Y-93440795D01*
X133061922Y-92734873D01*
X133008534Y-92506199D01*
X132778626Y-92400305D01*
X132532476Y-92341298D01*
X132279545Y-92331448D01*
X132029551Y-92371130D01*
X131792104Y-92458822D01*
X131703466Y-92506199D01*
X131650078Y-92734873D01*
X127715225Y-92734873D01*
X127708994Y-92703548D01*
X127450057Y-92078418D01*
X127074138Y-91515815D01*
X126798824Y-91240501D01*
X142613176Y-91240501D01*
X142337862Y-91515815D01*
G37*
%TD.AperFunction*%
%TD*%
M02*
