%TF.GenerationSoftware,KiCad,Pcbnew,(5.1.10)-1*%
%TF.CreationDate,2021-09-27T16:18:06+09:00*%
%TF.ProjectId,EXTERNAL_LED_BOARD,45585445-524e-4414-9c5f-4c45445f424f,rev?*%
%TF.SameCoordinates,Original*%
%TF.FileFunction,Paste,Top*%
%TF.FilePolarity,Positive*%
%FSLAX46Y46*%
G04 Gerber Fmt 4.6, Leading zero omitted, Abs format (unit mm)*
G04 Created by KiCad (PCBNEW (5.1.10)-1) date 2021-09-27 16:18:06*
%MOMM*%
%LPD*%
G01*
G04 APERTURE LIST*
%ADD10R,0.700000X0.700000*%
G04 APERTURE END LIST*
D10*
%TO.C,U3*%
X139656000Y-99920501D03*
X138556000Y-99920501D03*
X138556000Y-98090501D03*
X139656000Y-98090501D03*
%TD*%
%TO.C,U2*%
X135256000Y-99920501D03*
X134156000Y-99920501D03*
X134156000Y-98090501D03*
X135256000Y-98090501D03*
%TD*%
%TO.C,C3*%
G36*
G01*
X141068500Y-99355501D02*
X141543500Y-99355501D01*
G75*
G02*
X141781000Y-99593001I0J-237500D01*
G01*
X141781000Y-100168001D01*
G75*
G02*
X141543500Y-100405501I-237500J0D01*
G01*
X141068500Y-100405501D01*
G75*
G02*
X140831000Y-100168001I0J237500D01*
G01*
X140831000Y-99593001D01*
G75*
G02*
X141068500Y-99355501I237500J0D01*
G01*
G37*
G36*
G01*
X141068500Y-97605501D02*
X141543500Y-97605501D01*
G75*
G02*
X141781000Y-97843001I0J-237500D01*
G01*
X141781000Y-98418001D01*
G75*
G02*
X141543500Y-98655501I-237500J0D01*
G01*
X141068500Y-98655501D01*
G75*
G02*
X140831000Y-98418001I0J237500D01*
G01*
X140831000Y-97843001D01*
G75*
G02*
X141068500Y-97605501I237500J0D01*
G01*
G37*
%TD*%
%TO.C,C2*%
G36*
G01*
X136668500Y-99355501D02*
X137143500Y-99355501D01*
G75*
G02*
X137381000Y-99593001I0J-237500D01*
G01*
X137381000Y-100168001D01*
G75*
G02*
X137143500Y-100405501I-237500J0D01*
G01*
X136668500Y-100405501D01*
G75*
G02*
X136431000Y-100168001I0J237500D01*
G01*
X136431000Y-99593001D01*
G75*
G02*
X136668500Y-99355501I237500J0D01*
G01*
G37*
G36*
G01*
X136668500Y-97605501D02*
X137143500Y-97605501D01*
G75*
G02*
X137381000Y-97843001I0J-237500D01*
G01*
X137381000Y-98418001D01*
G75*
G02*
X137143500Y-98655501I-237500J0D01*
G01*
X136668500Y-98655501D01*
G75*
G02*
X136431000Y-98418001I0J237500D01*
G01*
X136431000Y-97843001D01*
G75*
G02*
X136668500Y-97605501I237500J0D01*
G01*
G37*
%TD*%
%TO.C,U1*%
X130856000Y-99920501D03*
X129756000Y-99920501D03*
X129756000Y-98090501D03*
X130856000Y-98090501D03*
%TD*%
%TO.C,C1*%
G36*
G01*
X132268500Y-99355501D02*
X132743500Y-99355501D01*
G75*
G02*
X132981000Y-99593001I0J-237500D01*
G01*
X132981000Y-100168001D01*
G75*
G02*
X132743500Y-100405501I-237500J0D01*
G01*
X132268500Y-100405501D01*
G75*
G02*
X132031000Y-100168001I0J237500D01*
G01*
X132031000Y-99593001D01*
G75*
G02*
X132268500Y-99355501I237500J0D01*
G01*
G37*
G36*
G01*
X132268500Y-97605501D02*
X132743500Y-97605501D01*
G75*
G02*
X132981000Y-97843001I0J-237500D01*
G01*
X132981000Y-98418001D01*
G75*
G02*
X132743500Y-98655501I-237500J0D01*
G01*
X132268500Y-98655501D01*
G75*
G02*
X132031000Y-98418001I0J237500D01*
G01*
X132031000Y-97843001D01*
G75*
G02*
X132268500Y-97605501I237500J0D01*
G01*
G37*
%TD*%
M02*
