%TF.GenerationSoftware,KiCad,Pcbnew,(5.1.10)-1*%
%TF.CreationDate,2021-09-27T16:18:06+09:00*%
%TF.ProjectId,EXTERNAL_LED_BOARD,45585445-524e-4414-9c5f-4c45445f424f,rev?*%
%TF.SameCoordinates,Original*%
%TF.FileFunction,Legend,Bot*%
%TF.FilePolarity,Positive*%
%FSLAX46Y46*%
G04 Gerber Fmt 4.6, Leading zero omitted, Abs format (unit mm)*
G04 Created by KiCad (PCBNEW (5.1.10)-1) date 2021-09-27 16:18:06*
%MOMM*%
%LPD*%
G01*
G04 APERTURE LIST*
%ADD10C,0.203200*%
%ADD11C,0.100000*%
%ADD12C,0.200000*%
G04 APERTURE END LIST*
D10*
X133823809Y-96403280D02*
X133823809Y-97419280D01*
X134307619Y-96403280D02*
X134307619Y-97419280D01*
X134888190Y-96403280D01*
X134888190Y-97419280D01*
X133340000Y-101788080D02*
X133533523Y-101788080D01*
X133630285Y-101739700D01*
X133727047Y-101642938D01*
X133775428Y-101449414D01*
X133775428Y-101110747D01*
X133727047Y-100917223D01*
X133630285Y-100820461D01*
X133533523Y-100772080D01*
X133340000Y-100772080D01*
X133243238Y-100820461D01*
X133146476Y-100917223D01*
X133098095Y-101110747D01*
X133098095Y-101449414D01*
X133146476Y-101642938D01*
X133243238Y-101739700D01*
X133340000Y-101788080D01*
X134210857Y-101788080D02*
X134210857Y-100965604D01*
X134259238Y-100868842D01*
X134307619Y-100820461D01*
X134404380Y-100772080D01*
X134597904Y-100772080D01*
X134694666Y-100820461D01*
X134743047Y-100868842D01*
X134791428Y-100965604D01*
X134791428Y-101788080D01*
X135130095Y-101788080D02*
X135710666Y-101788080D01*
X135420380Y-100772080D02*
X135420380Y-101788080D01*
X130366104Y-101739700D02*
X130269342Y-101788080D01*
X130124200Y-101788080D01*
X129979057Y-101739700D01*
X129882295Y-101642938D01*
X129833914Y-101546176D01*
X129785533Y-101352652D01*
X129785533Y-101207509D01*
X129833914Y-101013985D01*
X129882295Y-100917223D01*
X129979057Y-100820461D01*
X130124200Y-100772080D01*
X130220961Y-100772080D01*
X130366104Y-100820461D01*
X130414485Y-100868842D01*
X130414485Y-101207509D01*
X130220961Y-101207509D01*
X130849914Y-100772080D02*
X130849914Y-101788080D01*
X131430485Y-100772080D01*
X131430485Y-101788080D01*
X131914295Y-100772080D02*
X131914295Y-101788080D01*
X132156200Y-101788080D01*
X132301342Y-101739700D01*
X132398104Y-101642938D01*
X132446485Y-101546176D01*
X132494866Y-101352652D01*
X132494866Y-101207509D01*
X132446485Y-101013985D01*
X132398104Y-100917223D01*
X132301342Y-100820461D01*
X132156200Y-100772080D01*
X131914295Y-100772080D01*
X136835576Y-101788080D02*
X136351766Y-101788080D01*
X136303385Y-101304271D01*
X136351766Y-101352652D01*
X136448528Y-101401033D01*
X136690433Y-101401033D01*
X136787195Y-101352652D01*
X136835576Y-101304271D01*
X136883957Y-101207509D01*
X136883957Y-100965604D01*
X136835576Y-100868842D01*
X136787195Y-100820461D01*
X136690433Y-100772080D01*
X136448528Y-100772080D01*
X136351766Y-100820461D01*
X136303385Y-100868842D01*
X137174242Y-101788080D02*
X137512909Y-100772080D01*
X137851576Y-101788080D01*
X130366104Y-97370900D02*
X130269342Y-97419280D01*
X130124200Y-97419280D01*
X129979057Y-97370900D01*
X129882295Y-97274138D01*
X129833914Y-97177376D01*
X129785533Y-96983852D01*
X129785533Y-96838709D01*
X129833914Y-96645185D01*
X129882295Y-96548423D01*
X129979057Y-96451661D01*
X130124200Y-96403280D01*
X130220961Y-96403280D01*
X130366104Y-96451661D01*
X130414485Y-96500042D01*
X130414485Y-96838709D01*
X130220961Y-96838709D01*
X130849914Y-96403280D02*
X130849914Y-97419280D01*
X131430485Y-96403280D01*
X131430485Y-97419280D01*
X131914295Y-96403280D02*
X131914295Y-97419280D01*
X132156200Y-97419280D01*
X132301342Y-97370900D01*
X132398104Y-97274138D01*
X132446485Y-97177376D01*
X132494866Y-96983852D01*
X132494866Y-96838709D01*
X132446485Y-96645185D01*
X132398104Y-96548423D01*
X132301342Y-96451661D01*
X132156200Y-96403280D01*
X131914295Y-96403280D01*
X136835576Y-97419280D02*
X136351766Y-97419280D01*
X136303385Y-96935471D01*
X136351766Y-96983852D01*
X136448528Y-97032233D01*
X136690433Y-97032233D01*
X136787195Y-96983852D01*
X136835576Y-96935471D01*
X136883957Y-96838709D01*
X136883957Y-96596804D01*
X136835576Y-96500042D01*
X136787195Y-96451661D01*
X136690433Y-96403280D01*
X136448528Y-96403280D01*
X136351766Y-96451661D01*
X136303385Y-96500042D01*
X137174242Y-97419280D02*
X137512909Y-96403280D01*
X137851576Y-97419280D01*
D11*
%TO.C,J2*%
X137356000Y-107311000D02*
X130356000Y-107311000D01*
X130356000Y-107311000D02*
X130356000Y-102011000D01*
X130356000Y-102011000D02*
X138356000Y-102011000D01*
X138356000Y-102011000D02*
X138356000Y-105911000D01*
D12*
X138956000Y-104911000D02*
X138956000Y-104911000D01*
X138956000Y-104711000D02*
X138956000Y-104711000D01*
X138956000Y-104911000D02*
G75*
G02*
X138956000Y-104711000I0J100000D01*
G01*
X138956000Y-104711000D02*
G75*
G02*
X138956000Y-104911000I0J-100000D01*
G01*
D11*
%TO.C,J1*%
X137356000Y-96020400D02*
X130356000Y-96020400D01*
X130356000Y-96020400D02*
X130356000Y-90720400D01*
X130356000Y-90720400D02*
X138356000Y-90720400D01*
X138356000Y-90720400D02*
X138356000Y-94620400D01*
D12*
X138956000Y-93620400D02*
X138956000Y-93620400D01*
X138956000Y-93420400D02*
X138956000Y-93420400D01*
X138956000Y-93620400D02*
G75*
G02*
X138956000Y-93420400I0J100000D01*
G01*
X138956000Y-93420400D02*
G75*
G02*
X138956000Y-93620400I0J-100000D01*
G01*
%TD*%
M02*
