%MOIN*%
%OFA0B0*%
%FSLAX46Y46*%
%IPPOS*%
%LPD*%
%ADD10C,0.051181102362204731*%
%ADD11C,0.22047244094488189*%
%ADD12C,0.14173228346456693*%
%ADD23C,0.051181102362204731*%
%ADD24C,0.22047244094488189*%
%ADD25C,0.14173228346456693*%
%ADD26C,0.051181102362204731*%
%ADD27C,0.22047244094488189*%
%ADD28C,0.14173228346456693*%
%ADD29C,0.051181102362204731*%
%ADD30C,0.22047244094488189*%
%ADD31C,0.14173228346456693*%
%ADD32C,0.051181102362204731*%
%ADD33C,0.22047244094488189*%
%ADD34C,0.14173228346456693*%
%ADD35C,0.051181102362204731*%
%ADD36C,0.22047244094488189*%
%ADD37C,0.14173228346456693*%
G01*
D10*
X-0004771889Y0004232500D02*
X0000685590Y0000560000D03*
X0000606850Y0000560000D03*
X0000528110Y0000560000D03*
X0000449370Y0000560000D03*
X0000370629Y0000560000D03*
X0000370629Y0000103999D03*
X0000449370Y0000103999D03*
X0000528110Y0000103999D03*
X0000606850Y0000103999D03*
X0000685590Y0000103999D03*
D11*
X0000125984Y0000125984D03*
D12*
X0000125984Y0000125984D03*
D11*
X0000937007Y0000125984D03*
D12*
X0000937007Y0000125984D03*
D11*
X0000937007Y0000543307D03*
D12*
X0000937007Y0000543307D03*
D11*
X0000125984Y0000543307D03*
D12*
X0000125984Y0000543307D03*
G04 next file*
G04 Gerber Fmt 4.6, Leading zero omitted, Abs format (unit mm)*
G04 Created by KiCad (PCBNEW (5.1.10)-1) date 2021-09-16 22:13:13*
G01*
G04 APERTURE LIST*
G04 APERTURE END LIST*
D23*
X-0003590787Y0004232500D02*
X0001866692Y0000560000D03*
X0001787952Y0000560000D03*
X0001709212Y0000560000D03*
X0001630472Y0000560000D03*
X0001551732Y0000560000D03*
X0001551732Y0000103999D03*
X0001630472Y0000103999D03*
X0001709212Y0000103999D03*
X0001787952Y0000103999D03*
X0001866692Y0000103999D03*
D24*
X0001307086Y0000125984D03*
D25*
X0001307086Y0000125984D03*
D24*
X0002118110Y0000125984D03*
D25*
X0002118110Y0000125984D03*
D24*
X0002118110Y0000543307D03*
D25*
X0002118110Y0000543307D03*
D24*
X0001307086Y0000543307D03*
D25*
X0001307086Y0000543307D03*
G04 next file*
G04 Gerber Fmt 4.6, Leading zero omitted, Abs format (unit mm)*
G04 Created by KiCad (PCBNEW (5.1.10)-1) date 2021-09-16 22:13:13*
G01*
G04 APERTURE LIST*
G04 APERTURE END LIST*
D26*
X-0004771889Y0005019901D02*
X0000685590Y0001347401D03*
X0000606850Y0001347401D03*
X0000528110Y0001347401D03*
X0000449370Y0001347401D03*
X0000370629Y0001347401D03*
X0000370629Y0000891401D03*
X0000449370Y0000891401D03*
X0000528110Y0000891401D03*
X0000606850Y0000891401D03*
X0000685590Y0000891401D03*
D27*
X0000125984Y0000913385D03*
D28*
X0000125984Y0000913385D03*
D27*
X0000937007Y0000913385D03*
D28*
X0000937007Y0000913385D03*
D27*
X0000937007Y0001330708D03*
D28*
X0000937007Y0001330708D03*
D27*
X0000125984Y0001330708D03*
D28*
X0000125984Y0001330708D03*
G04 next file*
G04 Gerber Fmt 4.6, Leading zero omitted, Abs format (unit mm)*
G04 Created by KiCad (PCBNEW (5.1.10)-1) date 2021-09-16 22:13:13*
G01*
G04 APERTURE LIST*
G04 APERTURE END LIST*
D29*
X-0004771889Y0005807303D02*
X0000685590Y0002134803D03*
X0000606850Y0002134803D03*
X0000528110Y0002134803D03*
X0000449370Y0002134803D03*
X0000370629Y0002134803D03*
X0000370629Y0001678803D03*
X0000449370Y0001678803D03*
X0000528110Y0001678803D03*
X0000606850Y0001678803D03*
X0000685590Y0001678803D03*
D30*
X0000125984Y0001700787D03*
D31*
X0000125984Y0001700787D03*
D30*
X0000937007Y0001700787D03*
D31*
X0000937007Y0001700787D03*
D30*
X0000937007Y0002118110D03*
D31*
X0000937007Y0002118110D03*
D30*
X0000125984Y0002118110D03*
D31*
X0000125984Y0002118110D03*
G04 next file*
G04 Gerber Fmt 4.6, Leading zero omitted, Abs format (unit mm)*
G04 Created by KiCad (PCBNEW (5.1.10)-1) date 2021-09-16 22:13:13*
G01*
G04 APERTURE LIST*
G04 APERTURE END LIST*
D32*
X-0003590787Y0005019901D02*
X0001866692Y0001347401D03*
X0001787952Y0001347401D03*
X0001709212Y0001347401D03*
X0001630472Y0001347401D03*
X0001551732Y0001347401D03*
X0001551732Y0000891401D03*
X0001630472Y0000891401D03*
X0001709212Y0000891401D03*
X0001787952Y0000891401D03*
X0001866692Y0000891401D03*
D33*
X0001307086Y0000913385D03*
D34*
X0001307086Y0000913385D03*
D33*
X0002118110Y0000913385D03*
D34*
X0002118110Y0000913385D03*
D33*
X0002118110Y0001330708D03*
D34*
X0002118110Y0001330708D03*
D33*
X0001307086Y0001330708D03*
D34*
X0001307086Y0001330708D03*
G04 next file*
G04 Gerber Fmt 4.6, Leading zero omitted, Abs format (unit mm)*
G04 Created by KiCad (PCBNEW (5.1.10)-1) date 2021-09-16 22:13:13*
G01*
G04 APERTURE LIST*
G04 APERTURE END LIST*
D35*
X-0003590787Y0005807303D02*
X0001866692Y0002134803D03*
X0001787952Y0002134803D03*
X0001709212Y0002134803D03*
X0001630472Y0002134803D03*
X0001551732Y0002134803D03*
X0001551732Y0001678803D03*
X0001630472Y0001678803D03*
X0001709212Y0001678803D03*
X0001787952Y0001678803D03*
X0001866692Y0001678803D03*
D36*
X0001307086Y0001700787D03*
D37*
X0001307086Y0001700787D03*
D36*
X0002118110Y0001700787D03*
D37*
X0002118110Y0001700787D03*
D36*
X0002118110Y0002118110D03*
D37*
X0002118110Y0002118110D03*
D36*
X0001307086Y0002118110D03*
D37*
X0001307086Y0002118110D03*
M02*