%
M48
METRIC,000.000
T01C1.20
T10C0.80
T11C3.20
%
T01
X007914Y004340
X018913Y012524
X037914Y004340
X048913Y012524
X007914Y024340
X018913Y032524
X007914Y044340
X018913Y052524
X037914Y024340
X048913Y032524
X037914Y044340
X048913Y052524
T10
X009413Y014224
X009413Y002641
X011415Y014224
X011415Y002641
X013413Y014224
X013413Y002641
X015412Y014224
X015412Y002641
X017414Y014224
X017414Y002641
X039413Y014224
X039413Y002641
X041415Y014224
X041415Y002641
X043413Y014224
X043413Y002641
X045412Y014224
X045412Y002641
X047414Y014224
X047414Y002641
X009413Y034223
X009413Y022641
X011415Y034223
X011415Y022641
X013413Y034223
X013413Y022641
X015412Y034223
X015412Y022641
X017414Y034223
X017414Y022641
X009413Y054223
X009413Y042641
X011415Y054223
X011415Y042641
X013413Y054223
X013413Y042641
X015412Y054223
X015412Y042641
X017414Y054223
X017414Y042641
X039413Y034223
X039413Y022641
X041415Y034223
X041415Y022641
X043413Y034223
X043413Y022641
X045412Y034223
X045412Y022641
X047414Y034223
X047414Y022641
X039413Y054223
X039413Y042641
X041415Y054223
X041415Y042641
X043413Y054223
X043413Y042641
X045412Y054223
X045412Y042641
X047414Y054223
X047414Y042641
T11
X003200Y013799
X003200Y003200
X023800Y013799
X023800Y003200
X033200Y013799
X033200Y003200
X053800Y013799
X053800Y003200
X003200Y033799
X003200Y023200
X023800Y033799
X023800Y023200
X003200Y053799
X003200Y043200
X023800Y053799
X023800Y043200
X033200Y033799
X033200Y023200
X053800Y033799
X053800Y023200
X033200Y053799
X033200Y043200
X053800Y053799
X053800Y043200
M30