%TF.GenerationSoftware,KiCad,Pcbnew,(5.1.10)-1*%
%TF.CreationDate,2021-09-16T22:13:13+09:00*%
%TF.ProjectId,EXTERNAL_LED_BOARD,45585445-524e-4414-9c5f-4c45445f424f,rev?*%
%TF.SameCoordinates,Original*%
%TF.FileFunction,Copper,L1,Top*%
%TF.FilePolarity,Positive*%
%FSLAX46Y46*%
G04 Gerber Fmt 4.6, Leading zero omitted, Abs format (unit mm)*
G04 Created by KiCad (PCBNEW (5.1.10)-1) date 2021-09-16 22:13:13*
%MOMM*%
%LPD*%
G01*
G04 APERTURE LIST*
%TA.AperFunction,SMDPad,CuDef*%
%ADD10R,0.700000X0.700000*%
%TD*%
%TA.AperFunction,ComponentPad*%
%ADD11C,1.300000*%
%TD*%
%TA.AperFunction,ConnectorPad*%
%ADD12C,5.600000*%
%TD*%
%TA.AperFunction,ComponentPad*%
%ADD13C,3.600000*%
%TD*%
%TA.AperFunction,Conductor*%
%ADD14C,0.250000*%
%TD*%
%TA.AperFunction,Conductor*%
%ADD15C,0.254000*%
%TD*%
%TA.AperFunction,Conductor*%
%ADD16C,0.100000*%
%TD*%
G04 APERTURE END LIST*
D10*
%TO.P,U1,2*%
%TO.N,GND*%
X133791000Y-99555500D03*
%TO.P,U1,1*%
%TO.N,/OUT*%
X133791000Y-98455500D03*
%TO.P,U1,4*%
%TO.N,+5V*%
X135621000Y-98455500D03*
%TO.P,U1,3*%
%TO.N,/IN*%
X135621000Y-99555500D03*
%TD*%
D11*
%TO.P,J2,1*%
%TO.N,+5V*%
X138620000Y-93281500D03*
%TO.P,J2,2*%
%TO.N,/IN*%
X136620000Y-93281500D03*
%TO.P,J2,3*%
%TO.N,/OUT*%
X134620000Y-93281500D03*
%TO.P,J2,4*%
%TO.N,Net-(J2-Pad4)*%
X132620000Y-93281500D03*
%TO.P,J2,5*%
%TO.N,GND*%
X130620000Y-93281500D03*
%TD*%
%TO.P,J1,1*%
%TO.N,+5V*%
X130620000Y-104863900D03*
%TO.P,J1,2*%
%TO.N,/IN*%
X132620000Y-104863900D03*
%TO.P,J1,3*%
%TO.N,/OUT*%
X134620000Y-104863900D03*
%TO.P,J1,4*%
%TO.N,Net-(J1-Pad4)*%
X136620000Y-104863900D03*
%TO.P,J1,5*%
%TO.N,GND*%
X138620000Y-104863900D03*
%TD*%
%TO.P,C1,2*%
%TO.N,GND*%
%TA.AperFunction,SMDPad,CuDef*%
G36*
G01*
X138383000Y-99688100D02*
X138858000Y-99688100D01*
G75*
G02*
X139095500Y-99925600I0J-237500D01*
G01*
X139095500Y-100500600D01*
G75*
G02*
X138858000Y-100738100I-237500J0D01*
G01*
X138383000Y-100738100D01*
G75*
G02*
X138145500Y-100500600I0J237500D01*
G01*
X138145500Y-99925600D01*
G75*
G02*
X138383000Y-99688100I237500J0D01*
G01*
G37*
%TD.AperFunction*%
%TO.P,C1,1*%
%TO.N,+5V*%
%TA.AperFunction,SMDPad,CuDef*%
G36*
G01*
X138383000Y-97938100D02*
X138858000Y-97938100D01*
G75*
G02*
X139095500Y-98175600I0J-237500D01*
G01*
X139095500Y-98750600D01*
G75*
G02*
X138858000Y-98988100I-237500J0D01*
G01*
X138383000Y-98988100D01*
G75*
G02*
X138145500Y-98750600I0J237500D01*
G01*
X138145500Y-98175600D01*
G75*
G02*
X138383000Y-97938100I237500J0D01*
G01*
G37*
%TD.AperFunction*%
%TD*%
D12*
%TO.P,H3,1*%
%TO.N,N/C*%
X124406000Y-104305500D03*
D13*
X124406000Y-104305500D03*
%TD*%
D12*
%TO.P,H4,1*%
%TO.N,N/C*%
X145006000Y-104305500D03*
D13*
X145006000Y-104305500D03*
%TD*%
D12*
%TO.P,H2,1*%
%TO.N,N/C*%
X145006000Y-93705501D03*
D13*
X145006000Y-93705501D03*
%TD*%
D12*
%TO.P,H1,1*%
%TO.N,N/C*%
X124406000Y-93705501D03*
D13*
X124406000Y-93705501D03*
%TD*%
D14*
%TO.N,GND*%
X138620500Y-104863400D02*
X138620000Y-104863900D01*
X138620500Y-100213100D02*
X138620500Y-104863400D01*
X130620000Y-95984500D02*
X130620000Y-93281500D01*
X130620000Y-95984500D02*
X130622907Y-96102959D01*
X130622907Y-96102959D02*
X130631624Y-96221134D01*
X130631624Y-96221134D02*
X130646129Y-96338738D01*
X130646129Y-96338738D02*
X130666387Y-96455489D01*
X130666387Y-96455489D02*
X130692349Y-96571105D01*
X130692349Y-96571105D02*
X130723954Y-96685309D01*
X130723954Y-96685309D02*
X130761124Y-96797823D01*
X130761124Y-96797823D02*
X130803770Y-96908379D01*
X130803770Y-96908379D02*
X130851789Y-97016708D01*
X130851789Y-97016708D02*
X130905066Y-97122552D01*
X130905066Y-97122552D02*
X130963472Y-97225653D01*
X130963472Y-97225653D02*
X131026867Y-97325764D01*
X131026867Y-97325764D02*
X131095098Y-97422644D01*
X131095098Y-97422644D02*
X131168000Y-97516060D01*
X131168000Y-97516060D02*
X131245398Y-97605786D01*
X131245398Y-97605786D02*
X131327106Y-97691606D01*
X133691000Y-99555500D02*
X133791000Y-99555500D01*
X133691000Y-99555500D02*
X133631770Y-99554045D01*
X133631770Y-99554045D02*
X133572682Y-99549687D01*
X133572682Y-99549687D02*
X133513880Y-99542434D01*
X133513880Y-99542434D02*
X133455504Y-99532305D01*
X133455504Y-99532305D02*
X133397696Y-99519324D01*
X133397696Y-99519324D02*
X133340595Y-99503522D01*
X133340595Y-99503522D02*
X133284337Y-99484937D01*
X133284337Y-99484937D02*
X133229059Y-99463614D01*
X133229059Y-99463614D02*
X133174894Y-99439604D01*
X133174894Y-99439604D02*
X133121973Y-99412966D01*
X133121973Y-99412966D02*
X133070422Y-99383763D01*
X133070422Y-99383763D02*
X133020366Y-99352065D01*
X133020366Y-99352065D02*
X132971926Y-99317950D01*
X132971926Y-99317950D02*
X132925218Y-99281499D01*
X132925218Y-99281499D02*
X132880355Y-99242800D01*
X132880355Y-99242800D02*
X132837446Y-99201946D01*
X132837446Y-99201946D02*
X131327106Y-97691606D01*
%TO.N,+5V*%
X138612900Y-98455500D02*
X138620500Y-98463100D01*
X135621000Y-98455500D02*
X138612900Y-98455500D01*
X135621000Y-96780500D02*
X135621000Y-98455500D01*
X135621000Y-96780500D02*
X135622453Y-96721270D01*
X135622453Y-96721270D02*
X135626812Y-96662182D01*
X135626812Y-96662182D02*
X135634064Y-96603380D01*
X135634064Y-96603380D02*
X135644193Y-96545004D01*
X135644193Y-96545004D02*
X135657175Y-96487196D01*
X135657175Y-96487196D02*
X135672977Y-96430095D01*
X135672977Y-96430095D02*
X135691562Y-96373837D01*
X135691562Y-96373837D02*
X135712885Y-96318559D01*
X135712885Y-96318559D02*
X135736894Y-96264394D01*
X135736894Y-96264394D02*
X135763533Y-96211473D01*
X135763533Y-96211473D02*
X135792736Y-96159922D01*
X135792736Y-96159922D02*
X135824433Y-96109866D01*
X135824433Y-96109866D02*
X135858548Y-96061426D01*
X135858548Y-96061426D02*
X135895000Y-96014718D01*
X135895000Y-96014718D02*
X135933699Y-95969855D01*
X135933699Y-95969855D02*
X135974553Y-95926946D01*
X135974553Y-95926946D02*
X138620000Y-93281500D01*
%TO.N,/IN*%
X134670800Y-99205300D02*
X134671163Y-99227528D01*
X134671163Y-99227528D02*
X134672257Y-99249028D01*
X134672257Y-99249028D02*
X134674078Y-99269800D01*
X134674078Y-99269800D02*
X134676629Y-99289842D01*
X134676629Y-99289842D02*
X134679910Y-99309156D01*
X134679910Y-99309156D02*
X134683917Y-99327741D01*
X134683917Y-99327741D02*
X134688655Y-99345597D01*
X134688655Y-99345597D02*
X134694121Y-99362724D01*
X134694121Y-99362724D02*
X134700316Y-99379123D01*
X134700316Y-99379123D02*
X134707240Y-99394793D01*
X134707240Y-99394793D02*
X134714892Y-99409733D01*
X134714892Y-99409733D02*
X134723274Y-99423946D01*
X134723274Y-99423946D02*
X134732384Y-99437429D01*
X134732384Y-99437429D02*
X134742223Y-99450183D01*
X134742223Y-99450183D02*
X134752791Y-99462210D01*
X134752791Y-99462210D02*
X134764088Y-99473506D01*
X134764088Y-99473506D02*
X134776114Y-99484075D01*
X134776114Y-99484075D02*
X134788868Y-99493913D01*
X134788868Y-99493913D02*
X134802351Y-99503023D01*
X134802351Y-99503023D02*
X134816564Y-99511404D01*
X134816564Y-99511404D02*
X134831504Y-99519058D01*
X134831504Y-99519058D02*
X134847173Y-99525982D01*
X134847173Y-99525982D02*
X134863572Y-99532176D01*
X134863572Y-99532176D02*
X134880700Y-99537642D01*
X134880700Y-99537642D02*
X134898556Y-99542380D01*
X134898556Y-99542380D02*
X134917141Y-99546388D01*
X134917141Y-99546388D02*
X134936455Y-99549668D01*
X134936455Y-99549668D02*
X134956497Y-99552219D01*
X134956497Y-99552219D02*
X134977269Y-99554041D01*
X134977269Y-99554041D02*
X134998770Y-99555135D01*
X134998770Y-99555135D02*
X135021000Y-99555500D01*
X135621000Y-99555500D02*
X135021000Y-99555500D01*
X135024353Y-94877146D02*
X136620000Y-93281500D01*
X135024353Y-94877146D02*
X134983499Y-94920055D01*
X134983499Y-94920055D02*
X134944800Y-94964918D01*
X134944800Y-94964918D02*
X134908348Y-95011626D01*
X134908348Y-95011626D02*
X134874233Y-95060066D01*
X134874233Y-95060066D02*
X134842536Y-95110122D01*
X134842536Y-95110122D02*
X134813333Y-95161673D01*
X134813333Y-95161673D02*
X134786694Y-95214594D01*
X134786694Y-95214594D02*
X134762685Y-95268759D01*
X134762685Y-95268759D02*
X134741362Y-95324037D01*
X134741362Y-95324037D02*
X134722777Y-95380295D01*
X134722777Y-95380295D02*
X134706975Y-95437396D01*
X134706975Y-95437396D02*
X134693993Y-95495204D01*
X134693993Y-95495204D02*
X134683864Y-95553580D01*
X134683864Y-95553580D02*
X134676612Y-95612382D01*
X134676612Y-95612382D02*
X134672253Y-95671470D01*
X134672253Y-95671470D02*
X134670800Y-95730700D01*
X134670800Y-95730700D02*
X134670800Y-99205300D01*
%TO.N,/OUT*%
X134498106Y-93403393D02*
X134620000Y-93281500D01*
X134498106Y-93403393D02*
X134416398Y-93489212D01*
X134416398Y-93489212D02*
X134339000Y-93578938D01*
X134339000Y-93578938D02*
X134266098Y-93672354D01*
X133819900Y-98426600D02*
X133791000Y-98455500D01*
X134173453Y-93728046D02*
X134620000Y-93281500D01*
X134173453Y-93728046D02*
X134132599Y-93770955D01*
X134132599Y-93770955D02*
X134093900Y-93815818D01*
X134093900Y-93815818D02*
X134057448Y-93862526D01*
X134057448Y-93862526D02*
X134023333Y-93910966D01*
X134023333Y-93910966D02*
X133991636Y-93961022D01*
X133991636Y-93961022D02*
X133962433Y-94012573D01*
X133962433Y-94012573D02*
X133935794Y-94065494D01*
X133935794Y-94065494D02*
X133911785Y-94119659D01*
X133911785Y-94119659D02*
X133890462Y-94174937D01*
X133890462Y-94174937D02*
X133871877Y-94231195D01*
X133871877Y-94231195D02*
X133856075Y-94288296D01*
X133856075Y-94288296D02*
X133843093Y-94346104D01*
X133843093Y-94346104D02*
X133832964Y-94404480D01*
X133832964Y-94404480D02*
X133825712Y-94463282D01*
X133825712Y-94463282D02*
X133821353Y-94522370D01*
X133821353Y-94522370D02*
X133819900Y-94581600D01*
X133819900Y-94581600D02*
X133819900Y-98426600D01*
%TD*%
D15*
%TO.N,GND*%
X142337862Y-91515816D02*
X141961943Y-92078419D01*
X141703006Y-92703549D01*
X141571000Y-93367183D01*
X141571000Y-94043819D01*
X141703006Y-94707453D01*
X141961943Y-95332583D01*
X142337862Y-95895186D01*
X142816315Y-96373639D01*
X143378918Y-96749558D01*
X144004048Y-97008495D01*
X144667682Y-97140501D01*
X145344318Y-97140501D01*
X146007952Y-97008495D01*
X146633082Y-96749558D01*
X147195685Y-96373639D01*
X147470999Y-96098325D01*
X147471001Y-101912678D01*
X147195685Y-101637362D01*
X146633082Y-101261443D01*
X146007952Y-101002506D01*
X145344318Y-100870500D01*
X144667682Y-100870500D01*
X144004048Y-101002506D01*
X143378918Y-101261443D01*
X142816315Y-101637362D01*
X142337862Y-102115815D01*
X141961943Y-102678418D01*
X141703006Y-103303548D01*
X141571000Y-103967182D01*
X141571000Y-104643818D01*
X141703006Y-105307452D01*
X141961943Y-105932582D01*
X142337862Y-106495185D01*
X142613177Y-106770500D01*
X126798823Y-106770500D01*
X127074138Y-106495185D01*
X127450057Y-105932582D01*
X127708994Y-105307452D01*
X127841000Y-104643818D01*
X127841000Y-103967182D01*
X127708994Y-103303548D01*
X127600767Y-103042263D01*
X127885000Y-103042263D01*
X127885000Y-103285537D01*
X127932460Y-103524136D01*
X128025557Y-103748892D01*
X128160713Y-103951167D01*
X128332733Y-104123187D01*
X128535008Y-104258343D01*
X128759764Y-104351440D01*
X128998363Y-104398900D01*
X129241637Y-104398900D01*
X129437905Y-104359860D01*
X129384381Y-104489079D01*
X129335000Y-104737339D01*
X129335000Y-104990461D01*
X129384381Y-105238721D01*
X129481247Y-105472576D01*
X129621875Y-105683040D01*
X129800860Y-105862025D01*
X130011324Y-106002653D01*
X130245179Y-106099519D01*
X130493439Y-106148900D01*
X130746561Y-106148900D01*
X130994821Y-106099519D01*
X131228676Y-106002653D01*
X131439140Y-105862025D01*
X131618125Y-105683040D01*
X131620000Y-105680234D01*
X131621875Y-105683040D01*
X131800860Y-105862025D01*
X132011324Y-106002653D01*
X132245179Y-106099519D01*
X132493439Y-106148900D01*
X132746561Y-106148900D01*
X132994821Y-106099519D01*
X133228676Y-106002653D01*
X133439140Y-105862025D01*
X133618125Y-105683040D01*
X133620000Y-105680234D01*
X133621875Y-105683040D01*
X133800860Y-105862025D01*
X134011324Y-106002653D01*
X134245179Y-106099519D01*
X134493439Y-106148900D01*
X134746561Y-106148900D01*
X134994821Y-106099519D01*
X135228676Y-106002653D01*
X135439140Y-105862025D01*
X135618125Y-105683040D01*
X135620000Y-105680234D01*
X135621875Y-105683040D01*
X135800860Y-105862025D01*
X136011324Y-106002653D01*
X136245179Y-106099519D01*
X136493439Y-106148900D01*
X136746561Y-106148900D01*
X136994821Y-106099519D01*
X137228676Y-106002653D01*
X137439140Y-105862025D01*
X137551738Y-105749427D01*
X137914078Y-105749427D01*
X137967466Y-105978101D01*
X138197374Y-106083995D01*
X138443524Y-106143002D01*
X138696455Y-106152852D01*
X138946449Y-106113170D01*
X139183896Y-106025478D01*
X139272534Y-105978101D01*
X139325922Y-105749427D01*
X138620000Y-105043505D01*
X137914078Y-105749427D01*
X137551738Y-105749427D01*
X137618125Y-105683040D01*
X137699267Y-105561603D01*
X137734473Y-105569822D01*
X138440395Y-104863900D01*
X138799605Y-104863900D01*
X139505527Y-105569822D01*
X139734201Y-105516434D01*
X139840095Y-105286526D01*
X139899102Y-105040376D01*
X139908952Y-104787445D01*
X139869270Y-104537451D01*
X139781578Y-104300004D01*
X139734201Y-104211366D01*
X139505527Y-104157978D01*
X138799605Y-104863900D01*
X138440395Y-104863900D01*
X137734473Y-104157978D01*
X137699267Y-104166197D01*
X137618125Y-104044760D01*
X137551738Y-103978373D01*
X137914078Y-103978373D01*
X138620000Y-104684295D01*
X139325922Y-103978373D01*
X139272534Y-103749699D01*
X139042626Y-103643805D01*
X138796476Y-103584798D01*
X138543545Y-103574948D01*
X138293551Y-103614630D01*
X138056104Y-103702322D01*
X137967466Y-103749699D01*
X137914078Y-103978373D01*
X137551738Y-103978373D01*
X137439140Y-103865775D01*
X137228676Y-103725147D01*
X136994821Y-103628281D01*
X136746561Y-103578900D01*
X136493439Y-103578900D01*
X136245179Y-103628281D01*
X136011324Y-103725147D01*
X135800860Y-103865775D01*
X135621875Y-104044760D01*
X135620000Y-104047566D01*
X135618125Y-104044760D01*
X135439140Y-103865775D01*
X135228676Y-103725147D01*
X134994821Y-103628281D01*
X134746561Y-103578900D01*
X134493439Y-103578900D01*
X134245179Y-103628281D01*
X134011324Y-103725147D01*
X133800860Y-103865775D01*
X133621875Y-104044760D01*
X133620000Y-104047566D01*
X133618125Y-104044760D01*
X133439140Y-103865775D01*
X133228676Y-103725147D01*
X132994821Y-103628281D01*
X132746561Y-103578900D01*
X132493439Y-103578900D01*
X132245179Y-103628281D01*
X132011324Y-103725147D01*
X131800860Y-103865775D01*
X131621875Y-104044760D01*
X131620000Y-104047566D01*
X131618125Y-104044760D01*
X131439140Y-103865775D01*
X131228676Y-103725147D01*
X130994821Y-103628281D01*
X130746561Y-103578900D01*
X130493439Y-103578900D01*
X130266128Y-103624114D01*
X130307540Y-103524136D01*
X130355000Y-103285537D01*
X130355000Y-103042263D01*
X130307540Y-102803664D01*
X130214443Y-102578908D01*
X130079287Y-102376633D01*
X129907267Y-102204613D01*
X129704992Y-102069457D01*
X129480236Y-101976360D01*
X129241637Y-101928900D01*
X128998363Y-101928900D01*
X128759764Y-101976360D01*
X128535008Y-102069457D01*
X128332733Y-102204613D01*
X128160713Y-102376633D01*
X128025557Y-102578908D01*
X127932460Y-102803664D01*
X127885000Y-103042263D01*
X127600767Y-103042263D01*
X127450057Y-102678418D01*
X127074138Y-102115815D01*
X126595685Y-101637362D01*
X126033082Y-101261443D01*
X125407952Y-101002506D01*
X124744318Y-100870500D01*
X124067682Y-100870500D01*
X123404048Y-101002506D01*
X122778918Y-101261443D01*
X122216315Y-101637362D01*
X121941000Y-101912677D01*
X121941000Y-100738100D01*
X137507428Y-100738100D01*
X137519688Y-100862582D01*
X137555998Y-100982280D01*
X137614963Y-101092594D01*
X137694315Y-101189285D01*
X137791006Y-101268637D01*
X137901320Y-101327602D01*
X138021018Y-101363912D01*
X138145500Y-101376172D01*
X138334750Y-101373100D01*
X138493500Y-101214350D01*
X138493500Y-100340100D01*
X138747500Y-100340100D01*
X138747500Y-101214350D01*
X138906250Y-101373100D01*
X139095500Y-101376172D01*
X139219982Y-101363912D01*
X139339680Y-101327602D01*
X139449994Y-101268637D01*
X139546685Y-101189285D01*
X139626037Y-101092594D01*
X139685002Y-100982280D01*
X139721312Y-100862582D01*
X139733572Y-100738100D01*
X139730500Y-100498850D01*
X139571750Y-100340100D01*
X138747500Y-100340100D01*
X138493500Y-100340100D01*
X137669250Y-100340100D01*
X137510500Y-100498850D01*
X137507428Y-100738100D01*
X121941000Y-100738100D01*
X121941000Y-99905500D01*
X132802928Y-99905500D01*
X132815188Y-100029982D01*
X132851498Y-100149680D01*
X132910463Y-100259994D01*
X132989815Y-100356685D01*
X133086506Y-100436037D01*
X133196820Y-100495002D01*
X133316518Y-100531312D01*
X133441000Y-100543572D01*
X133505250Y-100540500D01*
X133664000Y-100381750D01*
X133664000Y-99682500D01*
X132964750Y-99682500D01*
X132806000Y-99841250D01*
X132802928Y-99905500D01*
X121941000Y-99905500D01*
X121941000Y-96098324D01*
X122216315Y-96373639D01*
X122778918Y-96749558D01*
X123404048Y-97008495D01*
X124067682Y-97140501D01*
X124744318Y-97140501D01*
X125407952Y-97008495D01*
X126033082Y-96749558D01*
X126595685Y-96373639D01*
X127074138Y-95895186D01*
X127450057Y-95332583D01*
X127708994Y-94707453D01*
X127816492Y-94167027D01*
X129914078Y-94167027D01*
X129967466Y-94395701D01*
X130197374Y-94501595D01*
X130443524Y-94560602D01*
X130696455Y-94570452D01*
X130946449Y-94530770D01*
X131183896Y-94443078D01*
X131272534Y-94395701D01*
X131325922Y-94167027D01*
X130620000Y-93461105D01*
X129914078Y-94167027D01*
X127816492Y-94167027D01*
X127841000Y-94043819D01*
X127841000Y-93367183D01*
X127839165Y-93357955D01*
X129331048Y-93357955D01*
X129370730Y-93607949D01*
X129458422Y-93845396D01*
X129505799Y-93934034D01*
X129734473Y-93987422D01*
X130440395Y-93281500D01*
X130799605Y-93281500D01*
X131505527Y-93987422D01*
X131540733Y-93979203D01*
X131621875Y-94100640D01*
X131800860Y-94279625D01*
X132011324Y-94420253D01*
X132245179Y-94517119D01*
X132493439Y-94566500D01*
X132746561Y-94566500D01*
X132994821Y-94517119D01*
X133061719Y-94489409D01*
X133060666Y-94503688D01*
X133061125Y-94522384D01*
X133060816Y-94534965D01*
X133059900Y-94544268D01*
X133059900Y-94572318D01*
X133059214Y-94600283D01*
X133059900Y-94609581D01*
X133059901Y-97596797D01*
X132989815Y-97654315D01*
X132910463Y-97751006D01*
X132851498Y-97861320D01*
X132815188Y-97981018D01*
X132802928Y-98105500D01*
X132802928Y-98805500D01*
X132815188Y-98929982D01*
X132838096Y-99005500D01*
X132815188Y-99081018D01*
X132802928Y-99205500D01*
X132806000Y-99269750D01*
X132964750Y-99428500D01*
X133307248Y-99428500D01*
X133316518Y-99431312D01*
X133441000Y-99443572D01*
X133931428Y-99443572D01*
X133933448Y-99452942D01*
X133936897Y-99473244D01*
X133938000Y-99477286D01*
X133938000Y-99682500D01*
X133918000Y-99682500D01*
X133918000Y-100381750D01*
X134076750Y-100540500D01*
X134141000Y-100543572D01*
X134265482Y-100531312D01*
X134385180Y-100495002D01*
X134495494Y-100436037D01*
X134592185Y-100356685D01*
X134665845Y-100266930D01*
X134667579Y-100267390D01*
X134685210Y-100273017D01*
X134693866Y-100274869D01*
X134701846Y-100277430D01*
X134720899Y-100281539D01*
X134739724Y-100286534D01*
X134746728Y-100287673D01*
X134753090Y-100289409D01*
X134766468Y-100291681D01*
X134819815Y-100356685D01*
X134916506Y-100436037D01*
X135026820Y-100495002D01*
X135146518Y-100531312D01*
X135271000Y-100543572D01*
X135971000Y-100543572D01*
X136095482Y-100531312D01*
X136215180Y-100495002D01*
X136325494Y-100436037D01*
X136422185Y-100356685D01*
X136501537Y-100259994D01*
X136560502Y-100149680D01*
X136596812Y-100029982D01*
X136609072Y-99905500D01*
X136609072Y-99215500D01*
X137643474Y-99215500D01*
X137654988Y-99237042D01*
X137674599Y-99260939D01*
X137614963Y-99333606D01*
X137555998Y-99443920D01*
X137519688Y-99563618D01*
X137507428Y-99688100D01*
X137510500Y-99927350D01*
X137669250Y-100086100D01*
X138493500Y-100086100D01*
X138493500Y-100066100D01*
X138747500Y-100066100D01*
X138747500Y-100086100D01*
X139571750Y-100086100D01*
X139730500Y-99927350D01*
X139733572Y-99688100D01*
X139721312Y-99563618D01*
X139685002Y-99443920D01*
X139626037Y-99333606D01*
X139566401Y-99260939D01*
X139586012Y-99237042D01*
X139666923Y-99085667D01*
X139716748Y-98921416D01*
X139733572Y-98750600D01*
X139733572Y-98175600D01*
X139716748Y-98004784D01*
X139666923Y-97840533D01*
X139586012Y-97689158D01*
X139477123Y-97556477D01*
X139344442Y-97447588D01*
X139193067Y-97366677D01*
X139028816Y-97316852D01*
X138858000Y-97300028D01*
X138383000Y-97300028D01*
X138212184Y-97316852D01*
X138047933Y-97366677D01*
X137896558Y-97447588D01*
X137763877Y-97556477D01*
X137654988Y-97689158D01*
X137651598Y-97695500D01*
X136455985Y-97695500D01*
X136422185Y-97654315D01*
X136381000Y-97620515D01*
X136381000Y-96789784D01*
X136381765Y-96758579D01*
X136383381Y-96736686D01*
X136386064Y-96714931D01*
X136389813Y-96693322D01*
X136394620Y-96671917D01*
X136400468Y-96650785D01*
X136407356Y-96629936D01*
X136415240Y-96609495D01*
X136424135Y-96589429D01*
X136433996Y-96569839D01*
X136444803Y-96550762D01*
X136456544Y-96532219D01*
X136469170Y-96514293D01*
X136482662Y-96497005D01*
X136496988Y-96480397D01*
X136518549Y-96457751D01*
X138423678Y-94552624D01*
X138493439Y-94566500D01*
X138746561Y-94566500D01*
X138973872Y-94521286D01*
X138932460Y-94621264D01*
X138885000Y-94859863D01*
X138885000Y-95103137D01*
X138932460Y-95341736D01*
X139025557Y-95566492D01*
X139160713Y-95768767D01*
X139332733Y-95940787D01*
X139535008Y-96075943D01*
X139759764Y-96169040D01*
X139998363Y-96216500D01*
X140241637Y-96216500D01*
X140480236Y-96169040D01*
X140704992Y-96075943D01*
X140907267Y-95940787D01*
X141079287Y-95768767D01*
X141214443Y-95566492D01*
X141307540Y-95341736D01*
X141355000Y-95103137D01*
X141355000Y-94859863D01*
X141307540Y-94621264D01*
X141214443Y-94396508D01*
X141079287Y-94194233D01*
X140907267Y-94022213D01*
X140704992Y-93887057D01*
X140480236Y-93793960D01*
X140241637Y-93746500D01*
X139998363Y-93746500D01*
X139802095Y-93785540D01*
X139855619Y-93656321D01*
X139905000Y-93408061D01*
X139905000Y-93154939D01*
X139855619Y-92906679D01*
X139758753Y-92672824D01*
X139618125Y-92462360D01*
X139439140Y-92283375D01*
X139228676Y-92142747D01*
X138994821Y-92045881D01*
X138746561Y-91996500D01*
X138493439Y-91996500D01*
X138245179Y-92045881D01*
X138011324Y-92142747D01*
X137800860Y-92283375D01*
X137621875Y-92462360D01*
X137620000Y-92465166D01*
X137618125Y-92462360D01*
X137439140Y-92283375D01*
X137228676Y-92142747D01*
X136994821Y-92045881D01*
X136746561Y-91996500D01*
X136493439Y-91996500D01*
X136245179Y-92045881D01*
X136011324Y-92142747D01*
X135800860Y-92283375D01*
X135621875Y-92462360D01*
X135620000Y-92465166D01*
X135618125Y-92462360D01*
X135439140Y-92283375D01*
X135228676Y-92142747D01*
X134994821Y-92045881D01*
X134746561Y-91996500D01*
X134493439Y-91996500D01*
X134245179Y-92045881D01*
X134011324Y-92142747D01*
X133800860Y-92283375D01*
X133621875Y-92462360D01*
X133620000Y-92465166D01*
X133618125Y-92462360D01*
X133439140Y-92283375D01*
X133228676Y-92142747D01*
X132994821Y-92045881D01*
X132746561Y-91996500D01*
X132493439Y-91996500D01*
X132245179Y-92045881D01*
X132011324Y-92142747D01*
X131800860Y-92283375D01*
X131621875Y-92462360D01*
X131540733Y-92583797D01*
X131505527Y-92575578D01*
X130799605Y-93281500D01*
X130440395Y-93281500D01*
X129734473Y-92575578D01*
X129505799Y-92628966D01*
X129399905Y-92858874D01*
X129340898Y-93105024D01*
X129331048Y-93357955D01*
X127839165Y-93357955D01*
X127708994Y-92703549D01*
X127581593Y-92395973D01*
X129914078Y-92395973D01*
X130620000Y-93101895D01*
X131325922Y-92395973D01*
X131272534Y-92167299D01*
X131042626Y-92061405D01*
X130796476Y-92002398D01*
X130543545Y-91992548D01*
X130293551Y-92032230D01*
X130056104Y-92119922D01*
X129967466Y-92167299D01*
X129914078Y-92395973D01*
X127581593Y-92395973D01*
X127450057Y-92078419D01*
X127074138Y-91515816D01*
X126798823Y-91240501D01*
X142613177Y-91240501D01*
X142337862Y-91515816D01*
%TA.AperFunction,Conductor*%
D16*
G36*
X142337862Y-91515816D02*
G01*
X141961943Y-92078419D01*
X141703006Y-92703549D01*
X141571000Y-93367183D01*
X141571000Y-94043819D01*
X141703006Y-94707453D01*
X141961943Y-95332583D01*
X142337862Y-95895186D01*
X142816315Y-96373639D01*
X143378918Y-96749558D01*
X144004048Y-97008495D01*
X144667682Y-97140501D01*
X145344318Y-97140501D01*
X146007952Y-97008495D01*
X146633082Y-96749558D01*
X147195685Y-96373639D01*
X147470999Y-96098325D01*
X147471001Y-101912678D01*
X147195685Y-101637362D01*
X146633082Y-101261443D01*
X146007952Y-101002506D01*
X145344318Y-100870500D01*
X144667682Y-100870500D01*
X144004048Y-101002506D01*
X143378918Y-101261443D01*
X142816315Y-101637362D01*
X142337862Y-102115815D01*
X141961943Y-102678418D01*
X141703006Y-103303548D01*
X141571000Y-103967182D01*
X141571000Y-104643818D01*
X141703006Y-105307452D01*
X141961943Y-105932582D01*
X142337862Y-106495185D01*
X142613177Y-106770500D01*
X126798823Y-106770500D01*
X127074138Y-106495185D01*
X127450057Y-105932582D01*
X127708994Y-105307452D01*
X127841000Y-104643818D01*
X127841000Y-103967182D01*
X127708994Y-103303548D01*
X127600767Y-103042263D01*
X127885000Y-103042263D01*
X127885000Y-103285537D01*
X127932460Y-103524136D01*
X128025557Y-103748892D01*
X128160713Y-103951167D01*
X128332733Y-104123187D01*
X128535008Y-104258343D01*
X128759764Y-104351440D01*
X128998363Y-104398900D01*
X129241637Y-104398900D01*
X129437905Y-104359860D01*
X129384381Y-104489079D01*
X129335000Y-104737339D01*
X129335000Y-104990461D01*
X129384381Y-105238721D01*
X129481247Y-105472576D01*
X129621875Y-105683040D01*
X129800860Y-105862025D01*
X130011324Y-106002653D01*
X130245179Y-106099519D01*
X130493439Y-106148900D01*
X130746561Y-106148900D01*
X130994821Y-106099519D01*
X131228676Y-106002653D01*
X131439140Y-105862025D01*
X131618125Y-105683040D01*
X131620000Y-105680234D01*
X131621875Y-105683040D01*
X131800860Y-105862025D01*
X132011324Y-106002653D01*
X132245179Y-106099519D01*
X132493439Y-106148900D01*
X132746561Y-106148900D01*
X132994821Y-106099519D01*
X133228676Y-106002653D01*
X133439140Y-105862025D01*
X133618125Y-105683040D01*
X133620000Y-105680234D01*
X133621875Y-105683040D01*
X133800860Y-105862025D01*
X134011324Y-106002653D01*
X134245179Y-106099519D01*
X134493439Y-106148900D01*
X134746561Y-106148900D01*
X134994821Y-106099519D01*
X135228676Y-106002653D01*
X135439140Y-105862025D01*
X135618125Y-105683040D01*
X135620000Y-105680234D01*
X135621875Y-105683040D01*
X135800860Y-105862025D01*
X136011324Y-106002653D01*
X136245179Y-106099519D01*
X136493439Y-106148900D01*
X136746561Y-106148900D01*
X136994821Y-106099519D01*
X137228676Y-106002653D01*
X137439140Y-105862025D01*
X137551738Y-105749427D01*
X137914078Y-105749427D01*
X137967466Y-105978101D01*
X138197374Y-106083995D01*
X138443524Y-106143002D01*
X138696455Y-106152852D01*
X138946449Y-106113170D01*
X139183896Y-106025478D01*
X139272534Y-105978101D01*
X139325922Y-105749427D01*
X138620000Y-105043505D01*
X137914078Y-105749427D01*
X137551738Y-105749427D01*
X137618125Y-105683040D01*
X137699267Y-105561603D01*
X137734473Y-105569822D01*
X138440395Y-104863900D01*
X138799605Y-104863900D01*
X139505527Y-105569822D01*
X139734201Y-105516434D01*
X139840095Y-105286526D01*
X139899102Y-105040376D01*
X139908952Y-104787445D01*
X139869270Y-104537451D01*
X139781578Y-104300004D01*
X139734201Y-104211366D01*
X139505527Y-104157978D01*
X138799605Y-104863900D01*
X138440395Y-104863900D01*
X137734473Y-104157978D01*
X137699267Y-104166197D01*
X137618125Y-104044760D01*
X137551738Y-103978373D01*
X137914078Y-103978373D01*
X138620000Y-104684295D01*
X139325922Y-103978373D01*
X139272534Y-103749699D01*
X139042626Y-103643805D01*
X138796476Y-103584798D01*
X138543545Y-103574948D01*
X138293551Y-103614630D01*
X138056104Y-103702322D01*
X137967466Y-103749699D01*
X137914078Y-103978373D01*
X137551738Y-103978373D01*
X137439140Y-103865775D01*
X137228676Y-103725147D01*
X136994821Y-103628281D01*
X136746561Y-103578900D01*
X136493439Y-103578900D01*
X136245179Y-103628281D01*
X136011324Y-103725147D01*
X135800860Y-103865775D01*
X135621875Y-104044760D01*
X135620000Y-104047566D01*
X135618125Y-104044760D01*
X135439140Y-103865775D01*
X135228676Y-103725147D01*
X134994821Y-103628281D01*
X134746561Y-103578900D01*
X134493439Y-103578900D01*
X134245179Y-103628281D01*
X134011324Y-103725147D01*
X133800860Y-103865775D01*
X133621875Y-104044760D01*
X133620000Y-104047566D01*
X133618125Y-104044760D01*
X133439140Y-103865775D01*
X133228676Y-103725147D01*
X132994821Y-103628281D01*
X132746561Y-103578900D01*
X132493439Y-103578900D01*
X132245179Y-103628281D01*
X132011324Y-103725147D01*
X131800860Y-103865775D01*
X131621875Y-104044760D01*
X131620000Y-104047566D01*
X131618125Y-104044760D01*
X131439140Y-103865775D01*
X131228676Y-103725147D01*
X130994821Y-103628281D01*
X130746561Y-103578900D01*
X130493439Y-103578900D01*
X130266128Y-103624114D01*
X130307540Y-103524136D01*
X130355000Y-103285537D01*
X130355000Y-103042263D01*
X130307540Y-102803664D01*
X130214443Y-102578908D01*
X130079287Y-102376633D01*
X129907267Y-102204613D01*
X129704992Y-102069457D01*
X129480236Y-101976360D01*
X129241637Y-101928900D01*
X128998363Y-101928900D01*
X128759764Y-101976360D01*
X128535008Y-102069457D01*
X128332733Y-102204613D01*
X128160713Y-102376633D01*
X128025557Y-102578908D01*
X127932460Y-102803664D01*
X127885000Y-103042263D01*
X127600767Y-103042263D01*
X127450057Y-102678418D01*
X127074138Y-102115815D01*
X126595685Y-101637362D01*
X126033082Y-101261443D01*
X125407952Y-101002506D01*
X124744318Y-100870500D01*
X124067682Y-100870500D01*
X123404048Y-101002506D01*
X122778918Y-101261443D01*
X122216315Y-101637362D01*
X121941000Y-101912677D01*
X121941000Y-100738100D01*
X137507428Y-100738100D01*
X137519688Y-100862582D01*
X137555998Y-100982280D01*
X137614963Y-101092594D01*
X137694315Y-101189285D01*
X137791006Y-101268637D01*
X137901320Y-101327602D01*
X138021018Y-101363912D01*
X138145500Y-101376172D01*
X138334750Y-101373100D01*
X138493500Y-101214350D01*
X138493500Y-100340100D01*
X138747500Y-100340100D01*
X138747500Y-101214350D01*
X138906250Y-101373100D01*
X139095500Y-101376172D01*
X139219982Y-101363912D01*
X139339680Y-101327602D01*
X139449994Y-101268637D01*
X139546685Y-101189285D01*
X139626037Y-101092594D01*
X139685002Y-100982280D01*
X139721312Y-100862582D01*
X139733572Y-100738100D01*
X139730500Y-100498850D01*
X139571750Y-100340100D01*
X138747500Y-100340100D01*
X138493500Y-100340100D01*
X137669250Y-100340100D01*
X137510500Y-100498850D01*
X137507428Y-100738100D01*
X121941000Y-100738100D01*
X121941000Y-99905500D01*
X132802928Y-99905500D01*
X132815188Y-100029982D01*
X132851498Y-100149680D01*
X132910463Y-100259994D01*
X132989815Y-100356685D01*
X133086506Y-100436037D01*
X133196820Y-100495002D01*
X133316518Y-100531312D01*
X133441000Y-100543572D01*
X133505250Y-100540500D01*
X133664000Y-100381750D01*
X133664000Y-99682500D01*
X132964750Y-99682500D01*
X132806000Y-99841250D01*
X132802928Y-99905500D01*
X121941000Y-99905500D01*
X121941000Y-96098324D01*
X122216315Y-96373639D01*
X122778918Y-96749558D01*
X123404048Y-97008495D01*
X124067682Y-97140501D01*
X124744318Y-97140501D01*
X125407952Y-97008495D01*
X126033082Y-96749558D01*
X126595685Y-96373639D01*
X127074138Y-95895186D01*
X127450057Y-95332583D01*
X127708994Y-94707453D01*
X127816492Y-94167027D01*
X129914078Y-94167027D01*
X129967466Y-94395701D01*
X130197374Y-94501595D01*
X130443524Y-94560602D01*
X130696455Y-94570452D01*
X130946449Y-94530770D01*
X131183896Y-94443078D01*
X131272534Y-94395701D01*
X131325922Y-94167027D01*
X130620000Y-93461105D01*
X129914078Y-94167027D01*
X127816492Y-94167027D01*
X127841000Y-94043819D01*
X127841000Y-93367183D01*
X127839165Y-93357955D01*
X129331048Y-93357955D01*
X129370730Y-93607949D01*
X129458422Y-93845396D01*
X129505799Y-93934034D01*
X129734473Y-93987422D01*
X130440395Y-93281500D01*
X130799605Y-93281500D01*
X131505527Y-93987422D01*
X131540733Y-93979203D01*
X131621875Y-94100640D01*
X131800860Y-94279625D01*
X132011324Y-94420253D01*
X132245179Y-94517119D01*
X132493439Y-94566500D01*
X132746561Y-94566500D01*
X132994821Y-94517119D01*
X133061719Y-94489409D01*
X133060666Y-94503688D01*
X133061125Y-94522384D01*
X133060816Y-94534965D01*
X133059900Y-94544268D01*
X133059900Y-94572318D01*
X133059214Y-94600283D01*
X133059900Y-94609581D01*
X133059901Y-97596797D01*
X132989815Y-97654315D01*
X132910463Y-97751006D01*
X132851498Y-97861320D01*
X132815188Y-97981018D01*
X132802928Y-98105500D01*
X132802928Y-98805500D01*
X132815188Y-98929982D01*
X132838096Y-99005500D01*
X132815188Y-99081018D01*
X132802928Y-99205500D01*
X132806000Y-99269750D01*
X132964750Y-99428500D01*
X133307248Y-99428500D01*
X133316518Y-99431312D01*
X133441000Y-99443572D01*
X133931428Y-99443572D01*
X133933448Y-99452942D01*
X133936897Y-99473244D01*
X133938000Y-99477286D01*
X133938000Y-99682500D01*
X133918000Y-99682500D01*
X133918000Y-100381750D01*
X134076750Y-100540500D01*
X134141000Y-100543572D01*
X134265482Y-100531312D01*
X134385180Y-100495002D01*
X134495494Y-100436037D01*
X134592185Y-100356685D01*
X134665845Y-100266930D01*
X134667579Y-100267390D01*
X134685210Y-100273017D01*
X134693866Y-100274869D01*
X134701846Y-100277430D01*
X134720899Y-100281539D01*
X134739724Y-100286534D01*
X134746728Y-100287673D01*
X134753090Y-100289409D01*
X134766468Y-100291681D01*
X134819815Y-100356685D01*
X134916506Y-100436037D01*
X135026820Y-100495002D01*
X135146518Y-100531312D01*
X135271000Y-100543572D01*
X135971000Y-100543572D01*
X136095482Y-100531312D01*
X136215180Y-100495002D01*
X136325494Y-100436037D01*
X136422185Y-100356685D01*
X136501537Y-100259994D01*
X136560502Y-100149680D01*
X136596812Y-100029982D01*
X136609072Y-99905500D01*
X136609072Y-99215500D01*
X137643474Y-99215500D01*
X137654988Y-99237042D01*
X137674599Y-99260939D01*
X137614963Y-99333606D01*
X137555998Y-99443920D01*
X137519688Y-99563618D01*
X137507428Y-99688100D01*
X137510500Y-99927350D01*
X137669250Y-100086100D01*
X138493500Y-100086100D01*
X138493500Y-100066100D01*
X138747500Y-100066100D01*
X138747500Y-100086100D01*
X139571750Y-100086100D01*
X139730500Y-99927350D01*
X139733572Y-99688100D01*
X139721312Y-99563618D01*
X139685002Y-99443920D01*
X139626037Y-99333606D01*
X139566401Y-99260939D01*
X139586012Y-99237042D01*
X139666923Y-99085667D01*
X139716748Y-98921416D01*
X139733572Y-98750600D01*
X139733572Y-98175600D01*
X139716748Y-98004784D01*
X139666923Y-97840533D01*
X139586012Y-97689158D01*
X139477123Y-97556477D01*
X139344442Y-97447588D01*
X139193067Y-97366677D01*
X139028816Y-97316852D01*
X138858000Y-97300028D01*
X138383000Y-97300028D01*
X138212184Y-97316852D01*
X138047933Y-97366677D01*
X137896558Y-97447588D01*
X137763877Y-97556477D01*
X137654988Y-97689158D01*
X137651598Y-97695500D01*
X136455985Y-97695500D01*
X136422185Y-97654315D01*
X136381000Y-97620515D01*
X136381000Y-96789784D01*
X136381765Y-96758579D01*
X136383381Y-96736686D01*
X136386064Y-96714931D01*
X136389813Y-96693322D01*
X136394620Y-96671917D01*
X136400468Y-96650785D01*
X136407356Y-96629936D01*
X136415240Y-96609495D01*
X136424135Y-96589429D01*
X136433996Y-96569839D01*
X136444803Y-96550762D01*
X136456544Y-96532219D01*
X136469170Y-96514293D01*
X136482662Y-96497005D01*
X136496988Y-96480397D01*
X136518549Y-96457751D01*
X138423678Y-94552624D01*
X138493439Y-94566500D01*
X138746561Y-94566500D01*
X138973872Y-94521286D01*
X138932460Y-94621264D01*
X138885000Y-94859863D01*
X138885000Y-95103137D01*
X138932460Y-95341736D01*
X139025557Y-95566492D01*
X139160713Y-95768767D01*
X139332733Y-95940787D01*
X139535008Y-96075943D01*
X139759764Y-96169040D01*
X139998363Y-96216500D01*
X140241637Y-96216500D01*
X140480236Y-96169040D01*
X140704992Y-96075943D01*
X140907267Y-95940787D01*
X141079287Y-95768767D01*
X141214443Y-95566492D01*
X141307540Y-95341736D01*
X141355000Y-95103137D01*
X141355000Y-94859863D01*
X141307540Y-94621264D01*
X141214443Y-94396508D01*
X141079287Y-94194233D01*
X140907267Y-94022213D01*
X140704992Y-93887057D01*
X140480236Y-93793960D01*
X140241637Y-93746500D01*
X139998363Y-93746500D01*
X139802095Y-93785540D01*
X139855619Y-93656321D01*
X139905000Y-93408061D01*
X139905000Y-93154939D01*
X139855619Y-92906679D01*
X139758753Y-92672824D01*
X139618125Y-92462360D01*
X139439140Y-92283375D01*
X139228676Y-92142747D01*
X138994821Y-92045881D01*
X138746561Y-91996500D01*
X138493439Y-91996500D01*
X138245179Y-92045881D01*
X138011324Y-92142747D01*
X137800860Y-92283375D01*
X137621875Y-92462360D01*
X137620000Y-92465166D01*
X137618125Y-92462360D01*
X137439140Y-92283375D01*
X137228676Y-92142747D01*
X136994821Y-92045881D01*
X136746561Y-91996500D01*
X136493439Y-91996500D01*
X136245179Y-92045881D01*
X136011324Y-92142747D01*
X135800860Y-92283375D01*
X135621875Y-92462360D01*
X135620000Y-92465166D01*
X135618125Y-92462360D01*
X135439140Y-92283375D01*
X135228676Y-92142747D01*
X134994821Y-92045881D01*
X134746561Y-91996500D01*
X134493439Y-91996500D01*
X134245179Y-92045881D01*
X134011324Y-92142747D01*
X133800860Y-92283375D01*
X133621875Y-92462360D01*
X133620000Y-92465166D01*
X133618125Y-92462360D01*
X133439140Y-92283375D01*
X133228676Y-92142747D01*
X132994821Y-92045881D01*
X132746561Y-91996500D01*
X132493439Y-91996500D01*
X132245179Y-92045881D01*
X132011324Y-92142747D01*
X131800860Y-92283375D01*
X131621875Y-92462360D01*
X131540733Y-92583797D01*
X131505527Y-92575578D01*
X130799605Y-93281500D01*
X130440395Y-93281500D01*
X129734473Y-92575578D01*
X129505799Y-92628966D01*
X129399905Y-92858874D01*
X129340898Y-93105024D01*
X129331048Y-93357955D01*
X127839165Y-93357955D01*
X127708994Y-92703549D01*
X127581593Y-92395973D01*
X129914078Y-92395973D01*
X130620000Y-93101895D01*
X131325922Y-92395973D01*
X131272534Y-92167299D01*
X131042626Y-92061405D01*
X130796476Y-92002398D01*
X130543545Y-91992548D01*
X130293551Y-92032230D01*
X130056104Y-92119922D01*
X129967466Y-92167299D01*
X129914078Y-92395973D01*
X127581593Y-92395973D01*
X127450057Y-92078419D01*
X127074138Y-91515816D01*
X126798823Y-91240501D01*
X142613177Y-91240501D01*
X142337862Y-91515816D01*
G37*
%TD.AperFunction*%
%TD*%
M02*
