<?xml version="1.0" standalone="no"?>
 <!DOCTYPE svg PUBLIC "-//W3C//DTD SVG 1.1//EN" 
 "http://www.w3.org/Graphics/SVG/1.1/DTD/svg11.dtd"> 
<svg
  xmlns:svg="http://www.w3.org/2000/svg"
  xmlns="http://www.w3.org/2000/svg"
  xmlns:xlink="http://www.w3.org/1999/xlink"
  version="1.1"
  width="29.700220cm" height="21.000720cm" viewBox="0 0 116930 82680">
<title>SVG Picture created as EXTERNAL_LED_BOARD-F_Paste.svg date 2021/09/24 20:39:13 </title>
  <desc>Picture generated by PCBNEW </desc>
<g style="fill:#000000; fill-opacity:1;stroke:#000000; stroke-opacity:1;
stroke-linecap:round; stroke-linejoin:round;"
 transform="translate(0 0) scale(1 1)">
</g>
<g style="fill:#000000; fill-opacity:0.0; 
stroke:#000000; stroke-width:-0.000393701; stroke-opacity:1; 
stroke-linecap:round; stroke-linejoin:round;">
<g >
</g>
<g style="fill:#000000; fill-opacity:0.0; 
stroke:#000000; stroke-width:0; stroke-opacity:1; 
stroke-linecap:round; stroke-linejoin:round;">
</g>
<g style="fill:#000000; fill-opacity:1.0; 
stroke:#000000; stroke-width:0; stroke-opacity:1; 
stroke-linecap:round; stroke-linejoin:round;">
<path style="fill:#000000; fill-opacity:1.0; 
stroke:#000000; stroke-width:0; stroke-opacity:1; 
stroke-linecap:round; stroke-linejoin:round;fill-rule:evenodd;"
d="M 52535.8,39332.9
52535.8,39057.3
52811.4,39057.3
52811.4,39332.9
Z" /> 
<path style="fill:#000000; fill-opacity:1.0; 
stroke:#000000; stroke-width:0; stroke-opacity:1; 
stroke-linecap:round; stroke-linejoin:round;fill-rule:evenodd;"
d="M 52535.8,38899.8
52535.8,38624.2
52811.4,38624.2
52811.4,38899.8
Z" /> 
<path style="fill:#000000; fill-opacity:1.0; 
stroke:#000000; stroke-width:0; stroke-opacity:1; 
stroke-linecap:round; stroke-linejoin:round;fill-rule:evenodd;"
d="M 53256.3,38899.8
53256.3,38624.2
53531.9,38624.2
53531.9,38899.8
Z" /> 
<path style="fill:#000000; fill-opacity:1.0; 
stroke:#000000; stroke-width:0; stroke-opacity:1; 
stroke-linecap:round; stroke-linejoin:round;fill-rule:evenodd;"
d="M 53256.3,39332.9
53256.3,39057.3
53531.9,39057.3
53531.9,39332.9
Z" /> 
</g>
<g >
</g>
<g >
</g>
<g >
</g>
<g style="fill:#000000; fill-opacity:1.0; 
stroke:#000000; stroke-width:0; stroke-opacity:1; 
stroke-linecap:round; stroke-linejoin:round;">
<path style="fill:#000000; fill-opacity:1.0; 
stroke:#000000; stroke-width:0; stroke-opacity:1; 
stroke-linecap:round; stroke-linejoin:round;fill-rule:evenodd;"
d="M 54677.7,39247.7
54686.7,39249.1
54695.6,39251.3
54704.3,39254.4
54712.6,39258.3
54720.5,39263
54727.8,39268.5
54734.6,39274.7
54740.8,39281.5
54746.2,39288.8
54751,39296.7
54754.9,39305
54758,39313.6
54760.2,39322.5
54761.6,39331.6
54762,39340.8
54762,39567.2
54761.6,39576.3
54760.2,39585.4
54758,39594.3
54754.9,39602.9
54751,39611.2
54746.2,39619.1
54740.8,39626.5
54734.6,39633.3
54727.8,39639.4
54720.5,39644.9
54712.6,39649.6
54704.3,39653.6
54695.6,39656.6
54686.7,39658.9
54677.7,39660.2
54668.5,39660.7
54481.5,39660.7
54472.3,39660.2
54463.3,39658.9
54454.4,39656.6
54445.7,39653.6
54437.4,39649.6
54429.5,39644.9
54422.2,39639.4
54415.4,39633.3
54409.2,39626.5
54403.8,39619.1
54399,39611.2
54395.1,39602.9
54392,39594.3
54389.8,39585.4
54388.4,39576.3
54388,39567.2
54388,39340.8
54388.4,39331.6
54389.8,39322.5
54392,39313.6
54395.1,39305
54399,39296.7
54403.8,39288.8
54409.2,39281.5
54415.4,39274.7
54422.2,39268.5
54429.5,39263
54437.4,39258.3
54445.7,39254.4
54454.4,39251.3
54463.3,39249.1
54472.3,39247.7
54481.5,39247.3
54668.5,39247.3
Z" /> 
<path style="fill:#000000; fill-opacity:1.0; 
stroke:#000000; stroke-width:0; stroke-opacity:1; 
stroke-linecap:round; stroke-linejoin:round;fill-rule:evenodd;"
d="M 54677.7,38558.8
54686.7,38560.1
54695.6,38562.3
54704.3,38565.4
54712.6,38569.3
54720.5,38574.1
54727.8,38579.5
54734.6,38585.7
54740.8,38592.5
54746.2,38599.9
54751,38607.7
54754.9,38616
54758,38624.7
54760.2,38633.6
54761.6,38642.6
54762,38651.8
54762,38878.2
54761.6,38887.4
54760.2,38896.4
54758,38905.3
54754.9,38914
54751,38922.3
54746.2,38930.1
54740.8,38937.5
54734.6,38944.3
54727.8,38950.5
54720.5,38955.9
54712.6,38960.7
54704.3,38964.6
54695.6,38967.7
54686.7,38969.9
54677.7,38971.2
54668.5,38971.7
54481.5,38971.7
54472.3,38971.2
54463.3,38969.9
54454.4,38967.7
54445.7,38964.6
54437.4,38960.7
54429.5,38955.9
54422.2,38950.5
54415.4,38944.3
54409.2,38937.5
54403.8,38930.1
54399,38922.3
54395.1,38914
54392,38905.3
54389.8,38896.4
54388.4,38887.4
54388,38878.2
54388,38651.8
54388.4,38642.6
54389.8,38633.6
54392,38624.7
54395.1,38616
54399,38607.7
54403.8,38599.9
54409.2,38592.5
54415.4,38585.7
54422.2,38579.5
54429.5,38574.1
54437.4,38569.3
54445.7,38565.4
54454.4,38562.3
54463.3,38560.1
54472.3,38558.8
54481.5,38558.3
54668.5,38558.3
Z" /> 
</g>
<g >
</g>
<g >
</g>
<g >
</g>
<g >
</g>
<g >
</g>
<g >
</g>
<g >
</g>
</g> 
</svg>
