<?xml version="1.0" standalone="no"?>
 <!DOCTYPE svg PUBLIC "-//W3C//DTD SVG 1.1//EN" 
 "http://www.w3.org/Graphics/SVG/1.1/DTD/svg11.dtd"> 
<svg
  xmlns:svg="http://www.w3.org/2000/svg"
  xmlns="http://www.w3.org/2000/svg"
  xmlns:xlink="http://www.w3.org/1999/xlink"
  version="1.1"
  width="29.700220cm" height="21.000720cm" viewBox="0 0 116930 82680">
<title>SVG Picture created as EXTERNAL_LED_BOARD-F_Cu.svg date 2021/09/24 20:39:13 </title>
  <desc>Picture generated by PCBNEW </desc>
<g style="fill:#000000; fill-opacity:1;stroke:#000000; stroke-opacity:1;
stroke-linecap:round; stroke-linejoin:round;"
 transform="translate(0 0) scale(1 1)">
</g>
<g style="fill:#000000; fill-opacity:0.0; 
stroke:#000000; stroke-width:-0.000393701; stroke-opacity:1; 
stroke-linecap:round; stroke-linejoin:round;">
<g >
</g>
<g style="fill:#000000; fill-opacity:0.0; 
stroke:#000000; stroke-width:0; stroke-opacity:1; 
stroke-linecap:round; stroke-linejoin:round;">
</g>
<g style="fill:#000000; fill-opacity:1.0; 
stroke:#000000; stroke-width:0; stroke-opacity:1; 
stroke-linecap:round; stroke-linejoin:round;">
<path style="fill:#000000; fill-opacity:1.0; 
stroke:#000000; stroke-width:0; stroke-opacity:1; 
stroke-linecap:round; stroke-linejoin:round;fill-rule:evenodd;"
d="M 52535.8,39332.9
52535.8,39057.3
52811.4,39057.3
52811.4,39332.9
Z" /> 
<path style="fill:#000000; fill-opacity:1.0; 
stroke:#000000; stroke-width:0; stroke-opacity:1; 
stroke-linecap:round; stroke-linejoin:round;fill-rule:evenodd;"
d="M 52535.8,38899.8
52535.8,38624.2
52811.4,38624.2
52811.4,38899.8
Z" /> 
<path style="fill:#000000; fill-opacity:1.0; 
stroke:#000000; stroke-width:0; stroke-opacity:1; 
stroke-linecap:round; stroke-linejoin:round;fill-rule:evenodd;"
d="M 53256.3,38899.8
53256.3,38624.2
53531.9,38624.2
53531.9,38899.8
Z" /> 
<path style="fill:#000000; fill-opacity:1.0; 
stroke:#000000; stroke-width:0; stroke-opacity:1; 
stroke-linecap:round; stroke-linejoin:round;fill-rule:evenodd;"
d="M 53256.3,39332.9
53256.3,39057.3
53531.9,39057.3
53531.9,39332.9
Z" /> 
</g>
<g >
</g>
<g style="fill:#000000; fill-opacity:1.0; 
stroke:#000000; stroke-width:0; stroke-opacity:1; 
stroke-linecap:round; stroke-linejoin:round;">
<circle cx="54574.8" cy="36725" r="255.906" /> 
</g>
<g style="fill:#000000; fill-opacity:1.0; 
stroke:#000000; stroke-width:39.3701; stroke-opacity:1; 
stroke-linecap:round; stroke-linejoin:round;">
</g>
<g style="fill:#000000; fill-opacity:1.0; 
stroke:#000000; stroke-width:0; stroke-opacity:1; 
stroke-linecap:round; stroke-linejoin:round;">
<circle cx="53787.4" cy="36725" r="255.906" /> 
</g>
<g style="fill:#000000; fill-opacity:1.0; 
stroke:#000000; stroke-width:39.3701; stroke-opacity:1; 
stroke-linecap:round; stroke-linejoin:round;">
</g>
<g style="fill:#000000; fill-opacity:1.0; 
stroke:#000000; stroke-width:0; stroke-opacity:1; 
stroke-linecap:round; stroke-linejoin:round;">
<circle cx="53000" cy="36725" r="255.906" /> 
</g>
<g style="fill:#000000; fill-opacity:1.0; 
stroke:#000000; stroke-width:39.3701; stroke-opacity:1; 
stroke-linecap:round; stroke-linejoin:round;">
</g>
<g style="fill:#000000; fill-opacity:1.0; 
stroke:#000000; stroke-width:0; stroke-opacity:1; 
stroke-linecap:round; stroke-linejoin:round;">
<circle cx="52212.6" cy="36725" r="255.906" /> 
</g>
<g style="fill:#000000; fill-opacity:1.0; 
stroke:#000000; stroke-width:39.3701; stroke-opacity:1; 
stroke-linecap:round; stroke-linejoin:round;">
</g>
<g style="fill:#000000; fill-opacity:1.0; 
stroke:#000000; stroke-width:0; stroke-opacity:1; 
stroke-linecap:round; stroke-linejoin:round;">
<circle cx="51425.2" cy="36725" r="255.906" /> 
</g>
<g style="fill:#000000; fill-opacity:1.0; 
stroke:#000000; stroke-width:39.3701; stroke-opacity:1; 
stroke-linecap:round; stroke-linejoin:round;">
</g>
<g >
</g>
<g style="fill:#000000; fill-opacity:1.0; 
stroke:#000000; stroke-width:39.3701; stroke-opacity:1; 
stroke-linecap:round; stroke-linejoin:round;">
</g>
<g style="fill:#000000; fill-opacity:1.0; 
stroke:#000000; stroke-width:0; stroke-opacity:1; 
stroke-linecap:round; stroke-linejoin:round;">
<circle cx="51425.2" cy="41285" r="255.906" /> 
</g>
<g style="fill:#000000; fill-opacity:1.0; 
stroke:#000000; stroke-width:39.3701; stroke-opacity:1; 
stroke-linecap:round; stroke-linejoin:round;">
</g>
<g style="fill:#000000; fill-opacity:1.0; 
stroke:#000000; stroke-width:0; stroke-opacity:1; 
stroke-linecap:round; stroke-linejoin:round;">
<circle cx="52212.6" cy="41285" r="255.906" /> 
</g>
<g style="fill:#000000; fill-opacity:1.0; 
stroke:#000000; stroke-width:39.3701; stroke-opacity:1; 
stroke-linecap:round; stroke-linejoin:round;">
</g>
<g style="fill:#000000; fill-opacity:1.0; 
stroke:#000000; stroke-width:0; stroke-opacity:1; 
stroke-linecap:round; stroke-linejoin:round;">
<circle cx="53000" cy="41285" r="255.906" /> 
</g>
<g style="fill:#000000; fill-opacity:1.0; 
stroke:#000000; stroke-width:39.3701; stroke-opacity:1; 
stroke-linecap:round; stroke-linejoin:round;">
</g>
<g style="fill:#000000; fill-opacity:1.0; 
stroke:#000000; stroke-width:0; stroke-opacity:1; 
stroke-linecap:round; stroke-linejoin:round;">
<circle cx="53787.4" cy="41285" r="255.906" /> 
</g>
<g style="fill:#000000; fill-opacity:1.0; 
stroke:#000000; stroke-width:39.3701; stroke-opacity:1; 
stroke-linecap:round; stroke-linejoin:round;">
</g>
<g style="fill:#000000; fill-opacity:1.0; 
stroke:#000000; stroke-width:0; stroke-opacity:1; 
stroke-linecap:round; stroke-linejoin:round;">
<circle cx="54574.8" cy="41285" r="255.906" /> 
</g>
<g style="fill:#000000; fill-opacity:1.0; 
stroke:#000000; stroke-width:39.3701; stroke-opacity:1; 
stroke-linecap:round; stroke-linejoin:round;">
</g>
<g >
</g>
<g style="fill:#000000; fill-opacity:1.0; 
stroke:#000000; stroke-width:39.3701; stroke-opacity:1; 
stroke-linecap:round; stroke-linejoin:round;">
</g>
<g style="fill:#000000; fill-opacity:1.0; 
stroke:#000000; stroke-width:0; stroke-opacity:1; 
stroke-linecap:round; stroke-linejoin:round;">
<path style="fill:#000000; fill-opacity:1.0; 
stroke:#000000; stroke-width:0; stroke-opacity:1; 
stroke-linecap:round; stroke-linejoin:round;fill-rule:evenodd;"
d="M 54677.7,39247.7
54686.7,39249.1
54695.6,39251.3
54704.3,39254.4
54712.6,39258.3
54720.5,39263
54727.8,39268.5
54734.6,39274.7
54740.8,39281.5
54746.2,39288.8
54751,39296.7
54754.9,39305
54758,39313.6
54760.2,39322.5
54761.6,39331.6
54762,39340.8
54762,39567.2
54761.6,39576.3
54760.2,39585.4
54758,39594.3
54754.9,39602.9
54751,39611.2
54746.2,39619.1
54740.8,39626.5
54734.6,39633.3
54727.8,39639.4
54720.5,39644.9
54712.6,39649.6
54704.3,39653.6
54695.6,39656.6
54686.7,39658.9
54677.7,39660.2
54668.5,39660.7
54481.5,39660.7
54472.3,39660.2
54463.3,39658.9
54454.4,39656.6
54445.7,39653.6
54437.4,39649.6
54429.5,39644.9
54422.2,39639.4
54415.4,39633.3
54409.2,39626.5
54403.8,39619.1
54399,39611.2
54395.1,39602.9
54392,39594.3
54389.8,39585.4
54388.4,39576.3
54388,39567.2
54388,39340.8
54388.4,39331.6
54389.8,39322.5
54392,39313.6
54395.1,39305
54399,39296.7
54403.8,39288.8
54409.2,39281.5
54415.4,39274.7
54422.2,39268.5
54429.5,39263
54437.4,39258.3
54445.7,39254.4
54454.4,39251.3
54463.3,39249.1
54472.3,39247.7
54481.5,39247.3
54668.5,39247.3
Z" /> 
<path style="fill:#000000; fill-opacity:1.0; 
stroke:#000000; stroke-width:0; stroke-opacity:1; 
stroke-linecap:round; stroke-linejoin:round;fill-rule:evenodd;"
d="M 54677.7,38558.8
54686.7,38560.1
54695.6,38562.3
54704.3,38565.4
54712.6,38569.3
54720.5,38574.1
54727.8,38579.5
54734.6,38585.7
54740.8,38592.5
54746.2,38599.9
54751,38607.7
54754.9,38616
54758,38624.7
54760.2,38633.6
54761.6,38642.6
54762,38651.8
54762,38878.2
54761.6,38887.4
54760.2,38896.4
54758,38905.3
54754.9,38914
54751,38922.3
54746.2,38930.1
54740.8,38937.5
54734.6,38944.3
54727.8,38950.5
54720.5,38955.9
54712.6,38960.7
54704.3,38964.6
54695.6,38967.7
54686.7,38969.9
54677.7,38971.2
54668.5,38971.7
54481.5,38971.7
54472.3,38971.2
54463.3,38969.9
54454.4,38967.7
54445.7,38964.6
54437.4,38960.7
54429.5,38955.9
54422.2,38950.5
54415.4,38944.3
54409.2,38937.5
54403.8,38930.1
54399,38922.3
54395.1,38914
54392,38905.3
54389.8,38896.4
54388.4,38887.4
54388,38878.2
54388,38651.8
54388.4,38642.6
54389.8,38633.6
54392,38624.7
54395.1,38616
54399,38607.7
54403.8,38599.9
54409.2,38592.5
54415.4,38585.7
54422.2,38579.5
54429.5,38574.1
54437.4,38569.3
54445.7,38565.4
54454.4,38562.3
54463.3,38560.1
54472.3,38558.8
54481.5,38558.3
54668.5,38558.3
Z" /> 
</g>
<g >
</g>
<g style="fill:#000000; fill-opacity:1.0; 
stroke:#000000; stroke-width:0; stroke-opacity:1; 
stroke-linecap:round; stroke-linejoin:round;">
<circle cx="48978.7" cy="41065.2" r="1102.36" /> 
</g>
<g style="fill:#000000; fill-opacity:1.0; 
stroke:#000000; stroke-width:39.3701; stroke-opacity:1; 
stroke-linecap:round; stroke-linejoin:round;">
</g>
<g style="fill:#000000; fill-opacity:1.0; 
stroke:#000000; stroke-width:0; stroke-opacity:1; 
stroke-linecap:round; stroke-linejoin:round;">
<circle cx="48978.7" cy="41065.2" r="708.661" /> 
</g>
<g style="fill:#000000; fill-opacity:1.0; 
stroke:#000000; stroke-width:39.3701; stroke-opacity:1; 
stroke-linecap:round; stroke-linejoin:round;">
</g>
<g >
</g>
<g style="fill:#000000; fill-opacity:1.0; 
stroke:#000000; stroke-width:39.3701; stroke-opacity:1; 
stroke-linecap:round; stroke-linejoin:round;">
</g>
<g style="fill:#000000; fill-opacity:1.0; 
stroke:#000000; stroke-width:0; stroke-opacity:1; 
stroke-linecap:round; stroke-linejoin:round;">
<circle cx="57089" cy="41065.2" r="1102.36" /> 
</g>
<g style="fill:#000000; fill-opacity:1.0; 
stroke:#000000; stroke-width:39.3701; stroke-opacity:1; 
stroke-linecap:round; stroke-linejoin:round;">
</g>
<g style="fill:#000000; fill-opacity:1.0; 
stroke:#000000; stroke-width:0; stroke-opacity:1; 
stroke-linecap:round; stroke-linejoin:round;">
<circle cx="57089" cy="41065.2" r="708.661" /> 
</g>
<g style="fill:#000000; fill-opacity:1.0; 
stroke:#000000; stroke-width:39.3701; stroke-opacity:1; 
stroke-linecap:round; stroke-linejoin:round;">
</g>
<g >
</g>
<g style="fill:#000000; fill-opacity:1.0; 
stroke:#000000; stroke-width:39.3701; stroke-opacity:1; 
stroke-linecap:round; stroke-linejoin:round;">
</g>
<g style="fill:#000000; fill-opacity:1.0; 
stroke:#000000; stroke-width:0; stroke-opacity:1; 
stroke-linecap:round; stroke-linejoin:round;">
<circle cx="57089" cy="36891.9" r="1102.36" /> 
</g>
<g style="fill:#000000; fill-opacity:1.0; 
stroke:#000000; stroke-width:39.3701; stroke-opacity:1; 
stroke-linecap:round; stroke-linejoin:round;">
</g>
<g style="fill:#000000; fill-opacity:1.0; 
stroke:#000000; stroke-width:0; stroke-opacity:1; 
stroke-linecap:round; stroke-linejoin:round;">
<circle cx="57089" cy="36891.9" r="708.661" /> 
</g>
<g style="fill:#000000; fill-opacity:1.0; 
stroke:#000000; stroke-width:39.3701; stroke-opacity:1; 
stroke-linecap:round; stroke-linejoin:round;">
</g>
<g >
</g>
<g style="fill:#000000; fill-opacity:1.0; 
stroke:#000000; stroke-width:39.3701; stroke-opacity:1; 
stroke-linecap:round; stroke-linejoin:round;">
</g>
<g style="fill:#000000; fill-opacity:1.0; 
stroke:#000000; stroke-width:0; stroke-opacity:1; 
stroke-linecap:round; stroke-linejoin:round;">
<circle cx="48978.7" cy="36891.9" r="1102.36" /> 
</g>
<g style="fill:#000000; fill-opacity:1.0; 
stroke:#000000; stroke-width:39.3701; stroke-opacity:1; 
stroke-linecap:round; stroke-linejoin:round;">
</g>
<g style="fill:#000000; fill-opacity:1.0; 
stroke:#000000; stroke-width:0; stroke-opacity:1; 
stroke-linecap:round; stroke-linejoin:round;">
<circle cx="48978.7" cy="36891.9" r="708.661" /> 
</g>
<g style="fill:#000000; fill-opacity:1.0; 
stroke:#000000; stroke-width:39.3701; stroke-opacity:1; 
stroke-linecap:round; stroke-linejoin:round;">
</g>
<g >
</g>
<g >
</g>
<g style="fill:#000000; fill-opacity:1.0; 
stroke:#000000; stroke-width:39.3701; stroke-opacity:1; 
stroke-linecap:round; stroke-linejoin:round;">
</g>
<g style="fill:#000000; fill-opacity:1.0; 
stroke:#000000; stroke-width:98.4252; stroke-opacity:1; 
stroke-linecap:round; stroke-linejoin:round;">
</g>
<g style="fill:#000000; fill-opacity:0.0; 
stroke:#000000; stroke-width:98.4252; stroke-opacity:1; 
stroke-linecap:round; stroke-linejoin:round;">
<path d="M54575 41284
L54574 41285
" />
<path d="M54575 39453
L54575 41284
" />
<path d="M51425 37789
L51425 36725
" />
<path d="M51425 37789
L51426 37835
" />
<path d="M51426 37835
L51429 37882
" />
<path d="M51429 37882
L51435 37928
" />
<path d="M51435 37928
L51443 37974
" />
<path d="M51443 37974
L51453 38020
" />
<path d="M51453 38020
L51466 38065
" />
<path d="M51466 38065
L51480 38109
" />
<path d="M51480 38109
L51497 38152
" />
<path d="M51497 38152
L51516 38195
" />
<path d="M51516 38195
L51537 38237
" />
<path d="M51537 38237
L51560 38277
" />
<path d="M51560 38277
L51585 38317
" />
<path d="M51585 38317
L51612 38355
" />
<path d="M51612 38355
L51640 38392
" />
<path d="M51640 38392
L51671 38427
" />
<path d="M51671 38427
L51703 38461
" />
<path d="M52634 39195
L52673 39195
" />
<path d="M52634 39195
L52610 39194
" />
<path d="M52610 39194
L52587 39192
" />
<path d="M52587 39192
L52564 39189
" />
<path d="M52564 39189
L52541 39185
" />
<path d="M52541 39185
L52518 39180
" />
<path d="M52518 39180
L52496 39174
" />
<path d="M52496 39174
L52474 39167
" />
<path d="M52474 39167
L52452 39158
" />
<path d="M52452 39158
L52431 39149
" />
<path d="M52431 39149
L52410 39138
" />
<path d="M52410 39138
L52389 39127
" />
<path d="M52389 39127
L52370 39114
" />
<path d="M52370 39114
L52351 39101
" />
<path d="M52351 39101
L52332 39087
" />
<path d="M52332 39087
L52315 39071
" />
<path d="M52315 39071
L52298 39055
" />
<path d="M52298 39055
L51703 38461
" />
<path d="M54572 38762
L54575 38765
" />
<path d="M53394 38762
L54572 38762
" />
<path d="M53394 38102
L53394 38762
" />
<path d="M53394 38102
L53394 38079
" />
<path d="M53394 38079
L53396 38055
" />
<path d="M53396 38055
L53399 38032
" />
<path d="M53399 38032
L53403 38009
" />
<path d="M53403 38009
L53408 37987
" />
<path d="M53408 37987
L53414 37964
" />
<path d="M53414 37964
L53421 37942
" />
<path d="M53421 37942
L53430 37920
" />
<path d="M53430 37920
L53439 37899
" />
<path d="M53439 37899
L53450 37878
" />
<path d="M53450 37878
L53461 37858
" />
<path d="M53461 37858
L53474 37838
" />
<path d="M53474 37838
L53487 37819
" />
<path d="M53487 37819
L53501 37801
" />
<path d="M53501 37801
L53517 37783
" />
<path d="M53517 37783
L53533 37766
" />
<path d="M53533 37766
L54574 36725
" />
<path d="M53020 39057
L53020 39065
" />
<path d="M53020 39065
L53020 39074
" />
<path d="M53020 39074
L53021 39082
" />
<path d="M53021 39082
L53022 39090
" />
<path d="M53022 39090
L53023 39098
" />
<path d="M53023 39098
L53025 39105
" />
<path d="M53025 39105
L53027 39112
" />
<path d="M53027 39112
L53029 39119
" />
<path d="M53029 39119
L53031 39125
" />
<path d="M53031 39125
L53034 39131
" />
<path d="M53034 39131
L53037 39137
" />
<path d="M53037 39137
L53040 39143
" />
<path d="M53040 39143
L53044 39148
" />
<path d="M53044 39148
L53048 39153
" />
<path d="M53048 39153
L53052 39158
" />
<path d="M53052 39158
L53056 39162
" />
<path d="M53056 39162
L53061 39166
" />
<path d="M53061 39166
L53066 39170
" />
<path d="M53066 39170
L53071 39174
" />
<path d="M53071 39174
L53077 39177
" />
<path d="M53077 39177
L53083 39180
" />
<path d="M53083 39180
L53089 39183
" />
<path d="M53089 39183
L53095 39185
" />
<path d="M53095 39185
L53102 39188
" />
<path d="M53102 39188
L53109 39189
" />
<path d="M53109 39189
L53116 39191
" />
<path d="M53116 39191
L53124 39192
" />
<path d="M53124 39192
L53132 39193
" />
<path d="M53132 39193
L53140 39194
" />
<path d="M53140 39194
L53149 39194
" />
<path d="M53149 39194
L53157 39195
" />
<path d="M53394 39195
L53157 39195
" />
<path d="M53159 37353
L53787 36725
" />
<path d="M53159 37353
L53143 37370
" />
<path d="M53143 37370
L53127 37387
" />
<path d="M53127 37387
L53113 37406
" />
<path d="M53113 37406
L53100 37425
" />
<path d="M53100 37425
L53087 37444
" />
<path d="M53087 37444
L53076 37465
" />
<path d="M53076 37465
L53065 37486
" />
<path d="M53065 37486
L53056 37507
" />
<path d="M53056 37507
L53047 37529
" />
<path d="M53047 37529
L53040 37551
" />
<path d="M53040 37551
L53034 37573
" />
<path d="M53034 37573
L53029 37596
" />
<path d="M53029 37596
L53025 37619
" />
<path d="M53025 37619
L53022 37642
" />
<path d="M53022 37642
L53020 37665
" />
<path d="M53020 37665
L53020 37689
" />
<path d="M53020 37689
L53020 39057
" />
<path d="M52952 36772
L53000 36725
" />
<path d="M52952 36772
L52919 36806
" />
<path d="M52919 36806
L52889 36842
" />
<path d="M52889 36842
L52860 36878
" />
<path d="M52685 38750
L52673 38762
" />
<path d="M52824 36900
L53000 36725
" />
<path d="M52824 36900
L52808 36917
" />
<path d="M52808 36917
L52792 36935
" />
<path d="M52792 36935
L52778 36953
" />
<path d="M52778 36953
L52765 36972
" />
<path d="M52765 36972
L52752 36992
" />
<path d="M52752 36992
L52741 37012
" />
<path d="M52741 37012
L52730 37033
" />
<path d="M52730 37033
L52721 37054
" />
<path d="M52721 37054
L52712 37076
" />
<path d="M52712 37076
L52705 37098
" />
<path d="M52705 37098
L52699 37121
" />
<path d="M52699 37121
L52694 37144
" />
<path d="M52694 37144
L52690 37167
" />
<path d="M52690 37167
L52687 37190
" />
<path d="M52687 37190
L52685 37213
" />
<path d="M52685 37213
L52685 37236
" />
<path d="M52685 37236
L52685 38750
" />
</g>
<g >
</g>
<g style="fill:#000000; fill-opacity:0.0; 
stroke:#000000; stroke-width:98.4252; stroke-opacity:1; 
stroke-linecap:round; stroke-linejoin:round;">
<g >
</g>
<g style="fill:#000000; fill-opacity:1.0; 
stroke:#000000; stroke-width:100; stroke-opacity:1; 
stroke-linecap:round; stroke-linejoin:round;">
<path style="fill:#000000; fill-opacity:1.0; 
stroke:#000000; stroke-width:100; stroke-opacity:1; 
stroke-linecap:round; stroke-linejoin:round;fill-rule:evenodd;"
d="M 56038.5,36029.8
55890.5,36251.3
55788.6,36497.5
55736.6,36758.7
55736.6,37025.1
55788.6,37286.4
55890.5,37532.5
56038.5,37754
56226.9,37942.4
56448.4,38090.4
56694.5,38192.3
56955.8,38244.3
57222.2,38244.3
57483.4,38192.3
57729.6,38090.4
57951.1,37942.4
58059.4,37834
58059.4,40123.1
57951.1,40014.7
57729.6,39866.7
57483.4,39764.8
57222.2,39712.8
56955.8,39712.8
56694.5,39764.8
56448.4,39866.7
56226.9,40014.7
56038.5,40203.1
55890.5,40424.6
55788.6,40670.7
55736.6,40932
55736.6,41198.4
55788.6,41459.6
55890.5,41705.7
56038.5,41927.2
56146.9,42035.6
49920.8,42035.6
50029.2,41927.2
50177.2,41705.7
50279.1,41459.6
50331.1,41198.4
50331.1,40932
50279.1,40670.7
50236.5,40567.8
50348.4,40567.8
50348.4,40663.6
50367.1,40757.5
50403.8,40846
50457,40925.7
50524.7,40993.4
50604.3,41046.6
50692.8,41083.2
50786.8,41101.9
50882.5,41101.9
50959.8,41086.6
50938.7,41137.4
50919.3,41235.2
50919.3,41334.8
50938.7,41432.6
50976.9,41524.6
51032.2,41607.5
51102.7,41678
51185.6,41733.3
51277.6,41771.5
51375.4,41790.9
51475,41790.9
51572.8,41771.5
51664.8,41733.3
51747.7,41678
51818.2,41607.5
51818.9,41606.4
51819.6,41607.5
51890.1,41678
51973,41733.3
52065,41771.5
52162.8,41790.9
52262.4,41790.9
52360.2,41771.5
52452.2,41733.3
52535.1,41678
52605.6,41607.5
52606.3,41606.4
52607,41607.5
52677.5,41678
52760.4,41733.3
52852.4,41771.5
52950.2,41790.9
53049.8,41790.9
53147.6,41771.5
53239.6,41733.3
53322.5,41678
53393,41607.5
53393.7,41606.4
53394.4,41607.5
53464.9,41678
53547.8,41733.3
53639.8,41771.5
53737.6,41790.9
53837.2,41790.9
53935,41771.5
54027,41733.3
54109.9,41678
54154.2,41633.6
54296.9,41633.6
54317.9,41723.7
54408.4,41765.4
54505.3,41788.6
54604.9,41792.5
54703.3,41776.8
54796.8,41742.3
54831.7,41723.7
54852.7,41633.6
54574.8,41355.7
54296.9,41633.6
54154.2,41633.6
54180.4,41607.5
54212.3,41559.7
54226.2,41562.9
54504.1,41285
54645.5,41285
54923.4,41562.9
55013.5,41541.9
55055.2,41451.4
55078.4,41354.5
55082.3,41254.9
55066.6,41156.5
55032.1,41063
55013.5,41028.1
54923.4,41007.1
54645.5,41285
54504.1,41285
54226.2,41007.1
54212.3,41010.3
54180.4,40962.5
54154.2,40936.4
54296.9,40936.4
54574.8,41214.3
54852.7,40936.4
54831.7,40846.3
54741.2,40804.6
54644.3,40781.4
54544.7,40777.5
54446.3,40793.2
54352.8,40827.7
54317.9,40846.3
54296.9,40936.4
54154.2,40936.4
54109.9,40892
54027,40836.7
53935,40798.5
53837.2,40779.1
53737.6,40779.1
53639.8,40798.5
53547.8,40836.7
53464.9,40892
53394.4,40962.5
53393.7,40963.6
53393,40962.5
53322.5,40892
53239.6,40836.7
53147.6,40798.5
53049.8,40779.1
52950.2,40779.1
52852.4,40798.5
52760.4,40836.7
52677.5,40892
52607,40962.5
52606.3,40963.6
52605.6,40962.5
52535.1,40892
52452.2,40836.7
52360.2,40798.5
52262.4,40779.1
52162.8,40779.1
52065,40798.5
51973,40836.7
51890.1,40892
51819.6,40962.5
51818.9,40963.6
51818.2,40962.5
51747.7,40892
51664.8,40836.7
51572.8,40798.5
51475,40779.1
51375.4,40779.1
51285.9,40796.9
51302.2,40757.5
51320.9,40663.6
51320.9,40567.8
51302.2,40473.9
51265.5,40385.4
51212.3,40305.8
51144.6,40238
51065,40184.8
50976.5,40148.2
50882.5,40129.5
50786.8,40129.5
50692.8,40148.2
50604.3,40184.8
50524.7,40238
50457,40305.8
50403.8,40385.4
50367.1,40473.9
50348.4,40567.8
50236.5,40567.8
50177.2,40424.6
50029.2,40203.1
49840.8,40014.7
49619.3,39866.7
49373.2,39764.8
49111.9,39712.8
48845.5,39712.8
48584.3,39764.8
48338.2,39866.7
48116.7,40014.7
48008.3,40123.1
48008.3,39660.7
54136.8,39660.7
54141.6,39709.7
54155.9,39756.8
54179.1,39800.2
54210.4,39838.3
54248.4,39869.5
54291.9,39892.8
54339,39907.1
54388,39911.9
54462.5,39910.7
54525,39848.2
54525,39504
54625,39504
54625,39848.2
54687.5,39910.7
54762,39911.9
54811,39907.1
54858.1,39892.8
54901.6,39869.5
54939.6,39838.3
54970.9,39800.2
54994.1,39756.8
55008.4,39709.7
55013.2,39660.7
55012,39566.5
54949.5,39504
54625,39504
54525,39504
54200.5,39504
54138,39566.5
54136.8,39660.7
48008.3,39660.7
48008.3,39332.9
52284.6,39332.9
52289.4,39381.9
52303.7,39429
52327,39472.4
52358.2,39510.5
52396.3,39541.7
52439.7,39565
52486.8,39579.3
52535.8,39584.1
52561.1,39582.9
52623.6,39520.4
52623.6,39245.1
52348.3,39245.1
52285.8,39307.6
52284.6,39332.9
48008.3,39332.9
48008.3,37834
48116.7,37942.4
48338.2,38090.4
48584.3,38192.3
48845.5,38244.3
49111.9,38244.3
49373.2,38192.3
49619.3,38090.4
49840.8,37942.4
50029.2,37754
50177.2,37532.5
50279.1,37286.4
50321.5,37073.6
51147.3,37073.6
51168.3,37163.7
51258.8,37205.4
51355.7,37228.6
51455.3,37232.5
51553.7,37216.8
51647.2,37182.3
51682.1,37163.7
51703.1,37073.6
51425.2,36795.7
51147.3,37073.6
50321.5,37073.6
50331.1,37025.1
50331.1,36758.7
50330.4,36755.1
50917.7,36755.1
50933.4,36853.5
50967.9,36947
50986.5,36981.9
51076.6,37002.9
51354.5,36725
51495.9,36725
51773.8,37002.9
51787.7,36999.7
51819.6,37047.5
51890.1,37118
51973,37173.3
52065,37211.5
52162.8,37230.9
52262.4,37230.9
52360.2,37211.5
52386.5,37200.6
52386.1,37206.2
52386.3,37213.5
52386.1,37218.5
52385.8,37222.2
52385.8,37233.2
52385.5,37244.2
52385.8,37247.9
52385.8,38423.9
52358.2,38446.6
52327,38484.6
52303.7,38528.1
52289.4,38575.2
52284.6,38624.2
52284.6,38899.8
52289.4,38948.8
52298.5,38978.5
52289.4,39008.3
52284.6,39057.3
52285.8,39082.6
52348.3,39145.1
52483.2,39145.1
52486.8,39146.2
52535.8,39151
52728.9,39151
52729.7,39154.7
52731.1,39162.7
52731.5,39164.3
52731.5,39245.1
52723.6,39245.1
52723.6,39520.4
52786.1,39582.9
52811.4,39584.1
52860.4,39579.3
52907.6,39565
52951,39541.7
52989,39510.5
53018,39475.2
53018.7,39475.4
53025.7,39477.6
53029.1,39478.3
53032.2,39479.3
53039.7,39480.9
53047.1,39482.9
53049.9,39483.3
53052.4,39484
53057.7,39484.9
53078.7,39510.5
53116.7,39541.7
53160.2,39565
53207.3,39579.3
53256.3,39584.1
53531.9,39584.1
53580.9,39579.3
53628,39565
53671.5,39541.7
53709.5,39510.5
53740.8,39472.4
53764,39429
53778.3,39381.9
53783.1,39332.9
53783.1,39061.2
54190.3,39061.2
54194.9,39069.7
54202.6,39079.1
54179.1,39107.7
54155.9,39151.1
54141.6,39198.3
54136.8,39247.3
54138,39341.5
54200.5,39404
54525,39404
54525,39396.1
54625,39396.1
54625,39404
54949.5,39404
55012,39341.5
55013.2,39247.3
55008.4,39198.3
54994.1,39151.1
54970.9,39107.7
54947.4,39079.1
54955.1,39069.7
54987,39010.1
55006.6,38945.4
55013.2,38878.2
55013.2,38651.8
55006.6,38584.6
54987,38519.9
54955.1,38460.3
54912.3,38408.1
54860,38365.2
54800.4,38333.3
54735.8,38313.7
54668.5,38307.1
54481.5,38307.1
54414.2,38313.7
54349.6,38333.3
54290,38365.2
54237.7,38408.1
54194.9,38460.3
54193.5,38462.8
53722.8,38462.8
53709.5,38446.6
53693.3,38433.3
53693.3,38106.2
53693.6,38093.9
53694.2,38085.3
53695.3,38076.7
53696.8,38068.2
53698.7,38059.8
53701,38051.5
53703.7,38043.3
53706.8,38035.2
53710.3,38027.3
53714.2,38019.6
53718.4,38012.1
53723,38004.8
53728,37997.8
53733.3,37990.9
53739,37984.4
53747.5,37975.5
54497.5,37225.4
54525,37230.9
54624.6,37230.9
54714.1,37213.1
54697.8,37252.5
54679.1,37346.4
54679.1,37442.2
54697.8,37536.1
54734.5,37624.6
54787.7,37704.2
54855.4,37772
54935,37825.2
55023.5,37861.8
55117.5,37880.5
55213.2,37880.5
55307.2,37861.8
55395.7,37825.2
55475.3,37772
55543,37704.2
55596.2,37624.6
55632.9,37536.1
55651.6,37442.2
55651.6,37346.4
55632.9,37252.5
55596.2,37164
55543,37084.3
55475.3,37016.6
55395.7,36963.4
55307.2,36926.8
55213.2,36908.1
55117.5,36908.1
55040.2,36923.4
55061.3,36872.6
55080.7,36774.8
55080.7,36675.2
55061.3,36577.4
55023.1,36485.4
54967.8,36402.5
54897.3,36332
54814.4,36276.7
54722.4,36238.5
54624.6,36219.1
54525,36219.1
54427.2,36238.5
54335.2,36276.7
54252.3,36332
54181.8,36402.5
54181.1,36403.6
54180.4,36402.5
54109.9,36332
54027,36276.7
53935,36238.5
53837.2,36219.1
53737.6,36219.1
53639.8,36238.5
53547.8,36276.7
53464.9,36332
53394.4,36402.5
53393.7,36403.6
53393,36402.5
53322.5,36332
53239.6,36276.7
53147.6,36238.5
53049.8,36219.1
52950.2,36219.1
52852.4,36238.5
52760.4,36276.7
52677.5,36332
52607,36402.5
52606.3,36403.6
52605.6,36402.5
52535.1,36332
52452.2,36276.7
52360.2,36238.5
52262.4,36219.1
52162.8,36219.1
52065,36238.5
51973,36276.7
51890.1,36332
51819.6,36402.5
51787.7,36450.3
51773.8,36447.1
51495.9,36725
51354.5,36725
51076.6,36447.1
50986.5,36468.1
50944.8,36558.6
50921.6,36655.5
50917.7,36755.1
50330.4,36755.1
50279.1,36497.5
50229,36376.4
51147.3,36376.4
51425.2,36654.3
51703.1,36376.4
51682.1,36286.3
51591.6,36244.6
51494.7,36221.4
51395.1,36217.5
51296.7,36233.2
51203.2,36267.7
51168.3,36286.3
51147.3,36376.4
50229,36376.4
50177.2,36251.3
50029.2,36029.8
49920.8,35921.5
56146.9,35921.5
Z" /> 
</g>
</g>
</g> 
</svg>
