<?xml version="1.0" standalone="no"?>
 <!DOCTYPE svg PUBLIC "-//W3C//DTD SVG 1.1//EN" 
 "http://www.w3.org/Graphics/SVG/1.1/DTD/svg11.dtd"> 
<svg
  xmlns:svg="http://www.w3.org/2000/svg"
  xmlns="http://www.w3.org/2000/svg"
  xmlns:xlink="http://www.w3.org/1999/xlink"
  version="1.1"
  width="29.700220cm" height="21.000720cm" viewBox="0 0 116930 82680">
<title>SVG Picture created as EXTERNAL_LED_BOARD-B_Cu.svg date 2021/09/24 20:39:13 </title>
  <desc>Picture generated by PCBNEW </desc>
<g style="fill:#000000; fill-opacity:1;stroke:#000000; stroke-opacity:1;
stroke-linecap:round; stroke-linejoin:round;"
 transform="translate(0 0) scale(1 1)">
</g>
<g style="fill:#000000; fill-opacity:0.0; 
stroke:#000000; stroke-width:-0.000393701; stroke-opacity:1; 
stroke-linecap:round; stroke-linejoin:round;">
<g >
</g>
<g >
</g>
<g style="fill:#000000; fill-opacity:0.0; 
stroke:#000000; stroke-width:-0.000393701; stroke-opacity:1; 
stroke-linecap:round; stroke-linejoin:round;">
</g>
<g style="fill:#000000; fill-opacity:1.0; 
stroke:#000000; stroke-width:0; stroke-opacity:1; 
stroke-linecap:round; stroke-linejoin:round;">
<circle cx="54574.8" cy="36725" r="255.906" /> 
</g>
<g style="fill:#000000; fill-opacity:1.0; 
stroke:#000000; stroke-width:39.3701; stroke-opacity:1; 
stroke-linecap:round; stroke-linejoin:round;">
</g>
<g style="fill:#000000; fill-opacity:1.0; 
stroke:#000000; stroke-width:0; stroke-opacity:1; 
stroke-linecap:round; stroke-linejoin:round;">
<circle cx="53787.4" cy="36725" r="255.906" /> 
</g>
<g style="fill:#000000; fill-opacity:1.0; 
stroke:#000000; stroke-width:39.3701; stroke-opacity:1; 
stroke-linecap:round; stroke-linejoin:round;">
</g>
<g style="fill:#000000; fill-opacity:1.0; 
stroke:#000000; stroke-width:0; stroke-opacity:1; 
stroke-linecap:round; stroke-linejoin:round;">
<circle cx="53000" cy="36725" r="255.906" /> 
</g>
<g style="fill:#000000; fill-opacity:1.0; 
stroke:#000000; stroke-width:39.3701; stroke-opacity:1; 
stroke-linecap:round; stroke-linejoin:round;">
</g>
<g style="fill:#000000; fill-opacity:1.0; 
stroke:#000000; stroke-width:0; stroke-opacity:1; 
stroke-linecap:round; stroke-linejoin:round;">
<circle cx="52212.6" cy="36725" r="255.906" /> 
</g>
<g style="fill:#000000; fill-opacity:1.0; 
stroke:#000000; stroke-width:39.3701; stroke-opacity:1; 
stroke-linecap:round; stroke-linejoin:round;">
</g>
<g style="fill:#000000; fill-opacity:1.0; 
stroke:#000000; stroke-width:0; stroke-opacity:1; 
stroke-linecap:round; stroke-linejoin:round;">
<circle cx="51425.2" cy="36725" r="255.906" /> 
</g>
<g style="fill:#000000; fill-opacity:1.0; 
stroke:#000000; stroke-width:39.3701; stroke-opacity:1; 
stroke-linecap:round; stroke-linejoin:round;">
</g>
<g >
</g>
<g style="fill:#000000; fill-opacity:1.0; 
stroke:#000000; stroke-width:39.3701; stroke-opacity:1; 
stroke-linecap:round; stroke-linejoin:round;">
</g>
<g style="fill:#000000; fill-opacity:1.0; 
stroke:#000000; stroke-width:0; stroke-opacity:1; 
stroke-linecap:round; stroke-linejoin:round;">
<circle cx="51425.2" cy="41285" r="255.906" /> 
</g>
<g style="fill:#000000; fill-opacity:1.0; 
stroke:#000000; stroke-width:39.3701; stroke-opacity:1; 
stroke-linecap:round; stroke-linejoin:round;">
</g>
<g style="fill:#000000; fill-opacity:1.0; 
stroke:#000000; stroke-width:0; stroke-opacity:1; 
stroke-linecap:round; stroke-linejoin:round;">
<circle cx="52212.6" cy="41285" r="255.906" /> 
</g>
<g style="fill:#000000; fill-opacity:1.0; 
stroke:#000000; stroke-width:39.3701; stroke-opacity:1; 
stroke-linecap:round; stroke-linejoin:round;">
</g>
<g style="fill:#000000; fill-opacity:1.0; 
stroke:#000000; stroke-width:0; stroke-opacity:1; 
stroke-linecap:round; stroke-linejoin:round;">
<circle cx="53000" cy="41285" r="255.906" /> 
</g>
<g style="fill:#000000; fill-opacity:1.0; 
stroke:#000000; stroke-width:39.3701; stroke-opacity:1; 
stroke-linecap:round; stroke-linejoin:round;">
</g>
<g style="fill:#000000; fill-opacity:1.0; 
stroke:#000000; stroke-width:0; stroke-opacity:1; 
stroke-linecap:round; stroke-linejoin:round;">
<circle cx="53787.4" cy="41285" r="255.906" /> 
</g>
<g style="fill:#000000; fill-opacity:1.0; 
stroke:#000000; stroke-width:39.3701; stroke-opacity:1; 
stroke-linecap:round; stroke-linejoin:round;">
</g>
<g style="fill:#000000; fill-opacity:1.0; 
stroke:#000000; stroke-width:0; stroke-opacity:1; 
stroke-linecap:round; stroke-linejoin:round;">
<circle cx="54574.8" cy="41285" r="255.906" /> 
</g>
<g style="fill:#000000; fill-opacity:1.0; 
stroke:#000000; stroke-width:39.3701; stroke-opacity:1; 
stroke-linecap:round; stroke-linejoin:round;">
</g>
<g >
</g>
<g >
</g>
<g style="fill:#000000; fill-opacity:1.0; 
stroke:#000000; stroke-width:39.3701; stroke-opacity:1; 
stroke-linecap:round; stroke-linejoin:round;">
</g>
<g style="fill:#000000; fill-opacity:1.0; 
stroke:#000000; stroke-width:0; stroke-opacity:1; 
stroke-linecap:round; stroke-linejoin:round;">
<circle cx="48978.7" cy="41065.2" r="1102.36" /> 
</g>
<g style="fill:#000000; fill-opacity:1.0; 
stroke:#000000; stroke-width:39.3701; stroke-opacity:1; 
stroke-linecap:round; stroke-linejoin:round;">
</g>
<g style="fill:#000000; fill-opacity:1.0; 
stroke:#000000; stroke-width:0; stroke-opacity:1; 
stroke-linecap:round; stroke-linejoin:round;">
<circle cx="48978.7" cy="41065.2" r="708.661" /> 
</g>
<g style="fill:#000000; fill-opacity:1.0; 
stroke:#000000; stroke-width:39.3701; stroke-opacity:1; 
stroke-linecap:round; stroke-linejoin:round;">
</g>
<g >
</g>
<g style="fill:#000000; fill-opacity:1.0; 
stroke:#000000; stroke-width:39.3701; stroke-opacity:1; 
stroke-linecap:round; stroke-linejoin:round;">
</g>
<g style="fill:#000000; fill-opacity:1.0; 
stroke:#000000; stroke-width:0; stroke-opacity:1; 
stroke-linecap:round; stroke-linejoin:round;">
<circle cx="57089" cy="41065.2" r="1102.36" /> 
</g>
<g style="fill:#000000; fill-opacity:1.0; 
stroke:#000000; stroke-width:39.3701; stroke-opacity:1; 
stroke-linecap:round; stroke-linejoin:round;">
</g>
<g style="fill:#000000; fill-opacity:1.0; 
stroke:#000000; stroke-width:0; stroke-opacity:1; 
stroke-linecap:round; stroke-linejoin:round;">
<circle cx="57089" cy="41065.2" r="708.661" /> 
</g>
<g style="fill:#000000; fill-opacity:1.0; 
stroke:#000000; stroke-width:39.3701; stroke-opacity:1; 
stroke-linecap:round; stroke-linejoin:round;">
</g>
<g >
</g>
<g style="fill:#000000; fill-opacity:1.0; 
stroke:#000000; stroke-width:39.3701; stroke-opacity:1; 
stroke-linecap:round; stroke-linejoin:round;">
</g>
<g style="fill:#000000; fill-opacity:1.0; 
stroke:#000000; stroke-width:0; stroke-opacity:1; 
stroke-linecap:round; stroke-linejoin:round;">
<circle cx="57089" cy="36891.9" r="1102.36" /> 
</g>
<g style="fill:#000000; fill-opacity:1.0; 
stroke:#000000; stroke-width:39.3701; stroke-opacity:1; 
stroke-linecap:round; stroke-linejoin:round;">
</g>
<g style="fill:#000000; fill-opacity:1.0; 
stroke:#000000; stroke-width:0; stroke-opacity:1; 
stroke-linecap:round; stroke-linejoin:round;">
<circle cx="57089" cy="36891.9" r="708.661" /> 
</g>
<g style="fill:#000000; fill-opacity:1.0; 
stroke:#000000; stroke-width:39.3701; stroke-opacity:1; 
stroke-linecap:round; stroke-linejoin:round;">
</g>
<g >
</g>
<g style="fill:#000000; fill-opacity:1.0; 
stroke:#000000; stroke-width:39.3701; stroke-opacity:1; 
stroke-linecap:round; stroke-linejoin:round;">
</g>
<g style="fill:#000000; fill-opacity:1.0; 
stroke:#000000; stroke-width:0; stroke-opacity:1; 
stroke-linecap:round; stroke-linejoin:round;">
<circle cx="48978.7" cy="36891.9" r="1102.36" /> 
</g>
<g style="fill:#000000; fill-opacity:1.0; 
stroke:#000000; stroke-width:39.3701; stroke-opacity:1; 
stroke-linecap:round; stroke-linejoin:round;">
</g>
<g style="fill:#000000; fill-opacity:1.0; 
stroke:#000000; stroke-width:0; stroke-opacity:1; 
stroke-linecap:round; stroke-linejoin:round;">
<circle cx="48978.7" cy="36891.9" r="708.661" /> 
</g>
<g style="fill:#000000; fill-opacity:1.0; 
stroke:#000000; stroke-width:39.3701; stroke-opacity:1; 
stroke-linecap:round; stroke-linejoin:round;">
</g>
<g >
</g>
<g >
</g>
<g style="fill:#000000; fill-opacity:1.0; 
stroke:#000000; stroke-width:39.3701; stroke-opacity:1; 
stroke-linecap:round; stroke-linejoin:round;">
</g>
<g style="fill:#000000; fill-opacity:1.0; 
stroke:#000000; stroke-width:98.4252; stroke-opacity:1; 
stroke-linecap:round; stroke-linejoin:round;">
</g>
<g style="fill:#000000; fill-opacity:0.0; 
stroke:#000000; stroke-width:98.4252; stroke-opacity:1; 
stroke-linecap:round; stroke-linejoin:round;">
<path d="M51425 41646
L51425 41673
" />
<path d="M51425 41673
L51426 41699
" />
<path d="M51426 41699
L51429 41724
" />
<path d="M51429 41724
L51432 41749
" />
<path d="M51432 41749
L51436 41772
" />
<path d="M51436 41772
L51441 41794
" />
<path d="M51441 41794
L51446 41816
" />
<path d="M51446 41816
L51453 41837
" />
<path d="M51453 41837
L51460 41856
" />
<path d="M51460 41856
L51469 41875
" />
<path d="M51469 41875
L51478 41893
" />
<path d="M51478 41893
L51488 41911
" />
<path d="M51488 41911
L51499 41927
" />
<path d="M51499 41927
L51511 41942
" />
<path d="M51511 41942
L51524 41957
" />
<path d="M51524 41957
L51537 41970
" />
<path d="M51537 41970
L51552 41983
" />
<path d="M51552 41983
L51567 41995
" />
<path d="M51567 41995
L51584 42006
" />
<path d="M51584 42006
L51601 42016
" />
<path d="M51601 42016
L51619 42025
" />
<path d="M51619 42025
L51638 42034
" />
<path d="M51638 42034
L51658 42041
" />
<path d="M51658 42041
L51678 42048
" />
<path d="M51678 42048
L51700 42054
" />
<path d="M51700 42054
L51722 42058
" />
<path d="M51722 42058
L51746 42062
" />
<path d="M51746 42062
L51770 42066
" />
<path d="M51770 42066
L51795 42068
" />
<path d="M51795 42068
L51821 42069
" />
<path d="M51821 42069
L51848 42070
" />
<path d="M53095 42070
L53114 42069
" />
<path d="M53114 42069
L53133 42068
" />
<path d="M53133 42068
L53151 42067
" />
<path d="M53151 42067
L53169 42064
" />
<path d="M53169 42064
L53186 42061
" />
<path d="M53186 42061
L53202 42058
" />
<path d="M53202 42058
L53218 42054
" />
<path d="M53218 42054
L53233 42049
" />
<path d="M53233 42049
L53248 42043
" />
<path d="M53248 42043
L53261 42037
" />
<path d="M53261 42037
L53275 42031
" />
<path d="M53275 42031
L53287 42023
" />
<path d="M53287 42023
L53299 42015
" />
<path d="M53299 42015
L53310 42007
" />
<path d="M53310 42007
L53321 41997
" />
<path d="M53321 41997
L53331 41987
" />
<path d="M53331 41987
L53340 41977
" />
<path d="M53340 41977
L53349 41965
" />
<path d="M53349 41965
L53357 41954
" />
<path d="M53357 41954
L53364 41941
" />
<path d="M53364 41941
L53371 41928
" />
<path d="M53371 41928
L53377 41914
" />
<path d="M53377 41914
L53382 41900
" />
<path d="M53382 41900
L53387 41885
" />
<path d="M53387 41885
L53391 41869
" />
<path d="M53391 41869
L53395 41852
" />
<path d="M53395 41852
L53398 41835
" />
<path d="M53398 41835
L53400 41818
" />
<path d="M53400 41818
L53402 41799
" />
<path d="M53402 41799
L53403 41781
" />
<path d="M53403 41781
L53403 41761
" />
<path d="M51848 42070
L53095 42070
" />
<path d="M51425 41285
L51425 41646
" />
<path d="M53403 38289
L53403 41761
" />
<path d="M53403 38289
L53404 38243
" />
<path d="M53404 38243
L53408 38196
" />
<path d="M53408 38196
L53413 38150
" />
<path d="M53413 38150
L53421 38104
" />
<path d="M53421 38104
L53432 38059
" />
<path d="M53432 38059
L53444 38014
" />
<path d="M53444 38014
L53459 37969
" />
<path d="M53459 37969
L53475 37926
" />
<path d="M53475 37926
L53494 37883
" />
<path d="M53494 37883
L53515 37841
" />
<path d="M53515 37841
L53538 37801
" />
<path d="M53538 37801
L53563 37761
" />
<path d="M53563 37761
L53590 37723
" />
<path d="M53590 37723
L53619 37686
" />
<path d="M53619 37686
L53649 37651
" />
<path d="M53649 37651
L53681 37617
" />
<path d="M53681 37617
L54574 36725
" />
<path d="M52490 38021
L53787 36725
" />
<path d="M52490 38021
L52458 38055
" />
<path d="M52458 38055
L52428 38090
" />
<path d="M52428 38090
L52399 38127
" />
<path d="M52399 38127
L52372 38165
" />
<path d="M52372 38165
L52347 38204
" />
<path d="M52347 38204
L52324 38245
" />
<path d="M52324 38245
L52303 38287
" />
<path d="M52303 38287
L52284 38329
" />
<path d="M52284 38329
L52268 38373
" />
<path d="M52268 38373
L52253 38417
" />
<path d="M52253 38417
L52241 38462
" />
<path d="M52241 38462
L52230 38508
" />
<path d="M52230 38508
L52222 38554
" />
<path d="M52222 38554
L52217 38600
" />
<path d="M52217 38600
L52213 38646
" />
<path d="M52213 38646
L52212 38693
" />
<path d="M52212 38693
L52212 41285
" />
<path d="M52065 41790
L52050 41789
" />
<path d="M52050 41789
L52035 41789
" />
<path d="M52035 41789
L52021 41787
" />
<path d="M52021 41787
L52007 41786
" />
<path d="M52007 41786
L51994 41783
" />
<path d="M51994 41783
L51982 41781
" />
<path d="M51982 41781
L51970 41777
" />
<path d="M51970 41777
L51958 41774
" />
<path d="M51958 41774
L51947 41770
" />
<path d="M51947 41770
L51937 41765
" />
<path d="M51937 41765
L51927 41760
" />
<path d="M51927 41760
L51917 41754
" />
<path d="M51917 41754
L51908 41748
" />
<path d="M51908 41748
L51899 41741
" />
<path d="M51899 41741
L51891 41734
" />
<path d="M51891 41734
L51884 41727
" />
<path d="M51884 41727
L51876 41718
" />
<path d="M51876 41718
L51870 41710
" />
<path d="M51870 41710
L51864 41701
" />
<path d="M51864 41701
L51858 41691
" />
<path d="M51858 41691
L51853 41681
" />
<path d="M51853 41681
L51848 41671
" />
<path d="M51848 41671
L51844 41659
" />
<path d="M51844 41659
L51840 41648
" />
<path d="M51840 41648
L51837 41636
" />
<path d="M51837 41636
L51834 41623
" />
<path d="M51834 41623
L51832 41610
" />
<path d="M51832 41610
L51830 41597
" />
<path d="M51830 41597
L51829 41583
" />
<path d="M51829 41583
L51828 41568
" />
<path d="M51828 41568
L51828 41553
" />
<path d="M53000 41645
L52999 41654
" />
<path d="M52999 41654
L52999 41663
" />
<path d="M52999 41663
L52998 41671
" />
<path d="M52998 41671
L52997 41680
" />
<path d="M52997 41680
L52996 41688
" />
<path d="M52996 41688
L52994 41695
" />
<path d="M52994 41695
L52992 41703
" />
<path d="M52992 41703
L52990 41710
" />
<path d="M52990 41710
L52987 41716
" />
<path d="M52987 41716
L52984 41723
" />
<path d="M52984 41723
L52981 41729
" />
<path d="M52981 41729
L52978 41735
" />
<path d="M52978 41735
L52974 41741
" />
<path d="M52974 41741
L52970 41746
" />
<path d="M52970 41746
L52966 41751
" />
<path d="M52966 41751
L52961 41756
" />
<path d="M52961 41756
L52956 41760
" />
<path d="M52956 41760
L52951 41764
" />
<path d="M52951 41764
L52945 41768
" />
<path d="M52945 41768
L52939 41771
" />
<path d="M52939 41771
L52933 41774
" />
<path d="M52933 41774
L52926 41777
" />
<path d="M52926 41777
L52920 41780
" />
<path d="M52920 41780
L52913 41782
" />
<path d="M52913 41782
L52905 41784
" />
<path d="M52905 41784
L52898 41786
" />
<path d="M52898 41786
L52890 41787
" />
<path d="M52890 41787
L52881 41788
" />
<path d="M52881 41788
L52873 41789
" />
<path d="M52873 41789
L52864 41789
" />
<path d="M52864 41789
L52855 41790
" />
<path d="M52065 41790
L52855 41790
" />
<path d="M53000 41645
L53000 41285
" />
<path d="M51828 38289
L51828 41553
" />
<path d="M51828 38289
L51829 38243
" />
<path d="M51829 38243
L51833 38196
" />
<path d="M51833 38196
L51839 38150
" />
<path d="M51839 38150
L51847 38104
" />
<path d="M51847 38104
L51857 38059
" />
<path d="M51857 38059
L51869 38014
" />
<path d="M51869 38014
L51884 37969
" />
<path d="M51884 37969
L51901 37926
" />
<path d="M51901 37926
L51919 37883
" />
<path d="M51919 37883
L51940 37841
" />
<path d="M51940 37841
L51963 37801
" />
<path d="M51963 37801
L51988 37761
" />
<path d="M51988 37761
L52015 37723
" />
<path d="M52015 37723
L52044 37686
" />
<path d="M52044 37686
L52074 37651
" />
<path d="M52074 37651
L52107 37617
" />
<path d="M52107 37617
L53000 36725
" />
</g>
<g >
</g>
<g style="fill:#000000; fill-opacity:0.0; 
stroke:#000000; stroke-width:98.4252; stroke-opacity:1; 
stroke-linecap:round; stroke-linejoin:round;">
<g >
</g>
<g style="fill:#000000; fill-opacity:1.0; 
stroke:#000000; stroke-width:100; stroke-opacity:1; 
stroke-linecap:round; stroke-linejoin:round;">
<path style="fill:#000000; fill-opacity:1.0; 
stroke:#000000; stroke-width:100; stroke-opacity:1; 
stroke-linecap:round; stroke-linejoin:round;fill-rule:evenodd;"
d="M 56038.5,36029.8
55890.5,36251.3
55788.6,36497.5
55736.6,36758.7
55736.6,37025.1
55788.6,37286.4
55890.5,37532.5
56038.5,37754
56226.9,37942.4
56448.4,38090.4
56694.5,38192.3
56955.8,38244.3
57222.2,38244.3
57483.4,38192.3
57729.6,38090.4
57951.1,37942.4
58059.4,37834
58059.4,40123.1
57951.1,40014.7
57729.6,39866.7
57483.4,39764.8
57222.2,39712.8
56955.8,39712.8
56694.5,39764.8
56448.4,39866.7
56226.9,40014.7
56038.5,40203.1
55890.5,40424.6
55788.6,40670.7
55736.6,40932
55736.6,41198.4
55788.6,41459.6
55890.5,41705.7
56038.5,41927.2
56146.9,42035.6
53651.5,42035.6
53652.2,42034.1
53654.5,42028
53657.2,42022.1
53659.7,42014.3
53660.5,42012.3
53663.6,42005.1
53665.7,41998.6
53668.1,41992.2
53670.1,41984.6
53670.6,41983
53673.2,41976
53675.1,41969
53677.3,41962
53678.9,41954.8
53679.2,41953.5
53681.4,41946.8
53683,41939.3
53685,41931.9
53686.1,41924.9
53686.3,41923.9
53688,41917.5
53689.4,41909.6
53691.1,41901.7
53691.9,41895.1
53692,41894.4
53693.4,41888.3
53694.4,41879.9
53695.9,41871.5
53696.3,41865.3
53696.4,41864.8
53697.4,41859.1
53698.2,41850.3
53699.3,41841.5
53699.5,41835.6
53699.5,41835.3
53700.3,41829.9
53700.8,41820.7
53701.6,41811.5
53701.6,41806
53701.6,41805.8
53702.2,41800.7
53702.3,41791.1
53702.7,41784
53737.6,41790.9
53837.2,41790.9
53935,41771.5
54027,41733.3
54109.9,41678
54154.2,41633.6
54296.9,41633.6
54317.9,41723.7
54408.4,41765.4
54505.3,41788.6
54604.9,41792.5
54703.3,41776.8
54796.8,41742.3
54831.7,41723.7
54852.7,41633.6
54574.8,41355.7
54296.9,41633.6
54154.2,41633.6
54180.4,41607.5
54212.3,41559.7
54226.2,41562.9
54504.1,41285
54645.5,41285
54923.4,41562.9
55013.5,41541.9
55055.2,41451.4
55078.4,41354.5
55082.3,41254.9
55066.6,41156.5
55032.1,41063
55013.5,41028.1
54923.4,41007.1
54645.5,41285
54504.1,41285
54226.2,41007.1
54212.3,41010.3
54180.4,40962.5
54154.2,40936.4
54296.9,40936.4
54574.8,41214.3
54852.7,40936.4
54831.7,40846.3
54741.2,40804.6
54644.3,40781.4
54544.7,40777.5
54446.3,40793.2
54352.8,40827.7
54317.9,40846.3
54296.9,40936.4
54154.2,40936.4
54109.9,40892
54027,40836.7
53935,40798.5
53837.2,40779.1
53737.6,40779.1
53702.8,40786
53702.8,38293.6
53703.6,38258
53706,38226.1
53709.9,38194.4
53715.4,38162.9
53722.4,38131.7
53730.9,38100.9
53740.9,38070.6
53752.4,38040.8
53765.4,38011.5
53779.7,37983
53795.5,37955.2
53812.6,37928.2
53831,37902.1
53850.7,37876.9
53871.5,37852.7
53896.1,37826.8
54497.5,37225.4
54525,37230.9
54624.6,37230.9
54714.1,37213.1
54697.8,37252.5
54679.1,37346.4
54679.1,37442.2
54697.8,37536.1
54734.5,37624.6
54787.7,37704.2
54855.4,37772
54935,37825.2
55023.5,37861.8
55117.5,37880.5
55213.2,37880.5
55307.2,37861.8
55395.7,37825.2
55475.3,37772
55543,37704.2
55596.2,37624.6
55632.9,37536.1
55651.6,37442.2
55651.6,37346.4
55632.9,37252.5
55596.2,37164
55543,37084.3
55475.3,37016.6
55395.7,36963.4
55307.2,36926.8
55213.2,36908.1
55117.5,36908.1
55040.2,36923.4
55061.3,36872.6
55080.7,36774.8
55080.7,36675.2
55061.3,36577.4
55023.1,36485.4
54967.8,36402.5
54897.3,36332
54814.4,36276.7
54722.4,36238.5
54624.6,36219.1
54525,36219.1
54427.2,36238.5
54335.2,36276.7
54252.3,36332
54181.8,36402.5
54181.1,36403.6
54180.4,36402.5
54109.9,36332
54027,36276.7
53935,36238.5
53837.2,36219.1
53737.6,36219.1
53639.8,36238.5
53547.8,36276.7
53464.9,36332
53394.4,36402.5
53393.7,36403.6
53393,36402.5
53322.5,36332
53239.6,36276.7
53147.6,36238.5
53049.8,36219.1
52950.2,36219.1
52852.4,36238.5
52760.4,36276.7
52677.5,36332
52607,36402.5
52606.3,36403.6
52605.6,36402.5
52535.1,36332
52452.2,36276.7
52360.2,36238.5
52262.4,36219.1
52162.8,36219.1
52065,36238.5
51973,36276.7
51890.1,36332
51819.6,36402.5
51787.7,36450.3
51773.8,36447.1
51495.9,36725
51773.8,37002.9
51787.7,36999.7
51819.6,37047.5
51890.1,37118
51973,37173.3
52065,37211.5
52086.2,37215.7
51903.3,37398.5
51900.6,37400.9
51892.9,37408.9
51885.2,37416.7
51882.8,37419.5
51863.3,37440
51858,37445.1
51853.2,37450.7
51848.1,37456
51843.6,37461.8
51822.7,37486
51817.6,37491.3
51813.1,37497.1
51808.3,37502.7
51804.1,37508.7
51784.4,37533.9
51779.6,37539.5
51775.4,37545.5
51770.9,37551.3
51766.9,37557.5
51748.5,37583.6
51744,37589.4
51740.1,37595.6
51735.8,37601.6
51732.2,37608
51715.1,37635
51710.9,37641
51707.2,37647.4
51703.3,37653.7
51700,37660.2
51684.3,37688
51680.3,37694.3
51677,37700.8
51673.4,37707.2
51670.4,37713.9
51656,37742.5
51652.4,37748.9
51649.4,37755.6
51646.1,37762.2
51643.5,37769
51630.5,37798.3
51627.2,37804.8
51624.6,37811.7
51621.6,37818.4
51619.3,37825.4
51607.8,37855.2
51604.8,37861.9
51602.5,37868.9
51599.8,37875.8
51597.9,37882.9
51587.9,37913.2
51585.2,37920.1
51583.2,37927.2
51580.9,37934.2
51579.3,37941.3
51570.8,37972.1
51568.5,37979.1
51566.9,37986.3
51564.9,37993.4
51563.7,38000.6
51556.7,38031.8
51554.7,38038.9
51553.5,38046.1
51551.8,38053.3
51550.9,38060.6
51545.5,38092.1
51543.9,38099.3
51543,38106.6
51541.7,38113.8
51541.2,38121.2
51537.3,38152.9
51536,38160.1
51535.5,38167.5
51534.6,38174.8
51534.4,38182.1
51532,38214
51531.1,38221.3
51530.9,38228.6
51530.4,38236
51530.6,38243.3
51529.9,38271.6
51529.5,38275.3
51529.5,38286.3
51529.3,38297.3
51529.5,38301
51529.5,40789.9
51475,40779.1
51375.4,40779.1
51285.9,40796.9
51302.2,40757.5
51320.9,40663.6
51320.9,40567.8
51302.2,40473.9
51265.5,40385.4
51212.3,40305.8
51144.6,40238
51065,40184.8
50976.5,40148.2
50882.5,40129.5
50786.8,40129.5
50692.8,40148.2
50604.3,40184.8
50524.7,40238
50457,40305.8
50403.8,40385.4
50367.1,40473.9
50348.4,40567.8
50348.4,40663.6
50367.1,40757.5
50403.8,40846
50457,40925.7
50524.7,40993.4
50604.3,41046.6
50692.8,41083.2
50786.8,41101.9
50882.5,41101.9
50959.8,41086.6
50938.7,41137.4
50919.3,41235.2
50919.3,41334.8
50938.7,41432.6
50976.9,41524.6
51032.2,41607.5
51102.7,41678
51126.8,41694.1
51127.3,41698.5
51127.7,41705.7
51127.6,41711.2
51128.4,41720.4
51128.9,41729.6
51129.7,41735
51130.3,41742.2
51130.5,41748
51131.6,41756.8
51132.4,41765.6
51133.5,41771.4
51134.4,41778.4
51134.8,41784.7
51136.2,41793
51137.3,41801.4
51138.7,41807.5
51139.9,41814.5
51140.6,41821.1
51142.3,41829
51143.7,41837
51145.4,41843.3
51146.9,41850.4
51148.1,41857.4
51150,41864.8
51151.7,41872.3
51153.8,41879
51155.7,41886.1
51157.3,41893.4
51159.5,41900.3
51161.3,41907.3
51163.9,41914.3
51166.2,41921.5
51168.3,41929.1
51170.7,41935.5
51172.8,41942.1
51175.9,41949.3
51178.7,41956.6
51181.2,41964.4
51183.9,41970.3
51186.1,41976.4
51189.8,41983.8
51193.1,41991.2
51196.2,41999.2
51199,42004.6
51201.5,42010.2
51205.7,42017.7
51209.5,42025.1
51213.3,42033.2
51214.7,42035.6
49920.8,42035.6
50029.2,41927.2
50177.2,41705.7
50279.1,41459.6
50331.1,41198.4
50331.1,40932
50279.1,40670.7
50177.2,40424.6
50029.2,40203.1
49840.8,40014.7
49619.3,39866.7
49373.2,39764.8
49111.9,39712.8
48845.5,39712.8
48584.3,39764.8
48338.2,39866.7
48116.7,40014.7
48008.3,40123.1
48008.3,37834
48116.7,37942.4
48338.2,38090.4
48584.3,38192.3
48845.5,38244.3
49111.9,38244.3
49373.2,38192.3
49619.3,38090.4
49840.8,37942.4
50029.2,37754
50177.2,37532.5
50279.1,37286.4
50321.5,37073.6
51147.3,37073.6
51168.3,37163.7
51258.8,37205.4
51355.7,37228.6
51455.3,37232.5
51553.7,37216.8
51647.2,37182.3
51682.1,37163.7
51703.1,37073.6
51425.2,36795.7
51147.3,37073.6
50321.5,37073.6
50331.1,37025.1
50331.1,36758.7
50330.4,36755.1
50917.7,36755.1
50933.4,36853.5
50967.9,36947
50986.5,36981.9
51076.6,37002.9
51354.5,36725
51076.6,36447.1
50986.5,36468.1
50944.8,36558.6
50921.6,36655.5
50917.7,36755.1
50330.4,36755.1
50279.1,36497.5
50229,36376.4
51147.3,36376.4
51425.2,36654.3
51703.1,36376.4
51682.1,36286.3
51591.6,36244.6
51494.7,36221.4
51395.1,36217.5
51296.7,36233.2
51203.2,36267.7
51168.3,36286.3
51147.3,36376.4
50229,36376.4
50177.2,36251.3
50029.2,36029.8
49920.8,35921.5
56146.9,35921.5
Z" /> 
</g>
</g>
</g> 
</svg>
